<?xml version="1.0" encoding="UTF-8" standalone="no"?>
<svg
   xmlns:dc="http://purl.org/dc/elements/1.1/"
   xmlns:cc="http://creativecommons.org/ns#"
   xmlns:rdf="http://www.w3.org/1999/02/22-rdf-syntax-ns#"
   xmlns:svg="http://www.w3.org/2000/svg"
   xmlns="http://www.w3.org/2000/svg"
   xmlns:sodipodi="http://sodipodi.sourceforge.net/DTD/sodipodi-0.dtd"
   xmlns:inkscape="http://www.inkscape.org/namespaces/inkscape"
   width="25"
   height="25"
   viewBox="0 0 25 25"
   id="svg2"
   version="1.1"
   inkscape:version="1.0.1 (3bc2e813f5, 2020-09-07)"
   sodipodi:docname="audio.svg"
   inkscape:export-filename="/home/ossman/devel/noVNC/images/keyboard.png"
   inkscape:export-xdpi="90"
   inkscape:export-ydpi="90">
  <defs
     id="defs4" />
  <sodipodi:namedview
     id="base"
     pagecolor="#717171"
     bordercolor="#666666"
     borderopacity="1.0"
     inkscape:pageopacity="0"
     inkscape:pageshadow="2"
     inkscape:zoom="22.627417"
     inkscape:cx="-14.015068"
     inkscape:cy="2.7882772"
     inkscape:document-units="px"
     inkscape:current-layer="layer1"
     showgrid="false"
     units="px"
     inkscape:snap-bbox="true"
     inkscape:bbox-paths="true"
     inkscape:bbox-nodes="true"
     inkscape:snap-bbox-edge-midpoints="true"
     inkscape:snap-bbox-midpoints="false"
     inkscape:window-width="2488"
     inkscape:window-height="1376"
     inkscape:window-x="72"
     inkscape:window-y="27"
     inkscape:window-maximized="1"
     inkscape:object-paths="true"
     inkscape:snap-intersection-paths="true"
     inkscape:object-nodes="true"
     inkscape:snap-midpoints="true"
     inkscape:snap-smooth-nodes="true"
     inkscape:document-rotation="0"
     showguides="true"
     inkscape:guide-bbox="true">
    <inkscape:grid
       type="xygrid"
       id="grid4136" />
  </sodipodi:namedview>
  <metadata
     id="metadata7">
    <rdf:RDF>
      <cc:Work
         rdf:about="">
        <dc:format>image/svg+xml</dc:format>
        <dc:type
           rdf:resource="http://purl.org/dc/dcmitype/StillImage" />
        <dc:title></dc:title>
      </cc:Work>
    </rdf:RDF>
  </metadata>
  <g
     inkscape:label="Layer 1"
     inkscape:groupmode="layer"
     id="layer1"
     transform="translate(0,-1027.3622)">
    <path
       style="color:#000000;font-style:normal;font-variant:normal;font-weight:normal;font-stretch:normal;font-size:medium;line-height:normal;font-family:sans-serif;font-variant-ligatures:normal;font-variant-position:normal;font-variant-caps:normal;font-variant-numeric:normal;font-variant-alternates:normal;font-variant-east-asian:normal;font-feature-settings:normal;font-variation-settings:normal;text-indent:0;text-align:start;text-decoration:none;text-decoration-line:none;text-decoration-style:solid;text-decoration-color:#000000;letter-spacing:normal;word-spacing:normal;text-transform:none;writing-mode:lr-tb;direction:ltr;text-orientation:mixed;dominant-baseline:auto;baseline-shift:baseline;text-anchor:start;white-space:normal;shape-padding:0;shape-margin:0;inline-size:0;clip-rule:nonzero;display:inline;overflow:visible;visibility:visible;isolation:auto;mix-blend-mode:normal;color-interpolation:sRGB;color-interpolation-filters:linearRGB;solid-color:#000000;solid-opacity:1;vector-effect:none;fill:#ffffff;fill-opacity:1;fill-rule:nonzero;stroke:none;stroke-width:1.58527;stroke-linecap:round;stroke-linejoin:miter;stroke-miterlimit:4;stroke-dasharray:none;stroke-dashoffset:0;stroke-opacity:1;color-rendering:auto;image-rendering:auto;shape-rendering:auto;text-rendering:auto;enable-background:accumulate;stop-color:#000000;stop-opacity:1;opacity:1"
       d="M 17.726562 1033.3848 A 0.79263502 0.79263502 0 0 0 17.142578 1033.6172 A 0.79263502 0.79263502 0 0 0 17.142578 1034.7383 C 18.501685 1036.0976 19.263676 1037.9389 19.263672 1039.8613 C 19.263677 1041.7837 18.501684 1043.627 17.142578 1044.9863 A 0.79263502 0.79263502 0 0 0 17.142578 1046.1074 A 0.79263502 0.79263502 0 0 0 18.263672 1046.1074 C 19.919622 1044.4512 20.849615 1042.2035 20.849609 1039.8613 C 20.849615 1037.5192 19.919622 1035.2734 18.263672 1033.6172 A 0.79263502 0.79263502 0 0 0 17.726562 1033.3848 z "
       id="path1015" />
    <path
       id="rect854"
       style="fill:#ffffff;stroke-width:0;stroke-dasharray:none"
       d="m 11.211844,1034.336 a 0.79268394,0.79268394 0 0 0 -0.469698,0.1673 c -0.0022,0 -0.0059,9e-4 -0.0082,0 a 0.79268394,0.79268394 0 0 0 -0.0082,0.01 l -3.876241,3.2177 H 4.9546099 a 0.79268394,0.79268394 0 0 1 -0.0027,0 0.79268394,0.79268394 0 0 0 -0.0081,0 0.79268394,0.79268394 0 0 0 -0.7936268,0.7909 0.79268394,0.79268394 0 0 0 0,0.014 v 2.6455 c 0,0 0,0 0,0 a 0.79268394,0.79268394 0 0 0 0,0.01 0.79268394,0.79268394 0 0 0 0.7936268,0.7936 0.79268394,0.79268394 0 0 0 0.013503,0 h 1.8922867 l 3.7494814,3.1124 0.0054,0.01 a 0.79268394,0.79268394 0 0 0 0.610068,0.2862 0.79268394,0.79268394 0 0 0 0.790926,-0.7586 c 0.0026,-0.015 0.01355,-0.03 0.01355,-0.046 v -9.4561 a 0.79268394,0.79268394 0 0 0 -0.793627,-0.7936 0.79268394,0.79268394 0 0 0 -0.01355,0 z" />
    <path
       style="color:#000000;font-style:normal;font-variant:normal;font-weight:normal;font-stretch:normal;font-size:medium;line-height:normal;font-family:sans-serif;font-variant-ligatures:normal;font-variant-position:normal;font-variant-caps:normal;font-variant-numeric:normal;font-variant-alternates:normal;font-variant-east-asian:normal;font-feature-settings:normal;font-variation-settings:normal;text-indent:0;text-align:start;text-decoration:none;text-decoration-line:none;text-decoration-style:solid;text-decoration-color:#000000;letter-spacing:normal;word-spacing:normal;text-transform:none;writing-mode:lr-tb;direction:ltr;text-orientation:mixed;dominant-baseline:auto;baseline-shift:baseline;text-anchor:start;white-space:normal;shape-padding:0;shape-margin:0;inline-size:0;clip-rule:nonzero;display:inline;overflow:visible;visibility:visible;isolation:auto;mix-blend-mode:normal;color-interpolation:sRGB;color-interpolation-filters:linearRGB;solid-color:#000000;solid-opacity:1;vector-effect:none;fill:#ffffff;fill-opacity:1;fill-rule:nonzero;stroke:none;stroke-width:1.58527;stroke-linecap:round;stroke-linejoin:miter;stroke-miterlimit:4;stroke-dasharray:none;stroke-dashoffset:0;stroke-opacity:1;color-rendering:auto;image-rendering:auto;shape-rendering:auto;text-rendering:auto;enable-background:accumulate;stop-color:#000000;stop-opacity:1;opacity:1"
       d="M 15.794922 1035.3164 A 0.79263502 0.79263502 0 0 0 15.210938 1035.5488 A 0.79263502 0.79263502 0 0 0 15.210938 1036.6699 C 16.057983 1037.517 16.533213 1038.6634 16.533203 1039.8613 C 16.53319 1041.0592 16.057962 1042.2077 15.210938 1043.0547 A 0.79263502 0.79263502 0 0 0 15.210938 1044.1758 A 0.79263502 0.79263502 0 0 0 16.332031 1044.1758 C 17.475916 1043.0319 18.119123 1041.479 18.119141 1039.8613 C 18.119154 1038.2436 17.475944 1036.6928 16.332031 1035.5488 A 0.79263502 0.79263502 0 0 0 15.794922 1035.3164 z "
       id="path1019" />
    <path
       style="color:#000000;font-style:normal;font-variant:normal;font-weight:normal;font-stretch:normal;font-size:medium;line-height:normal;font-family:sans-serif;font-variant-ligatures:normal;font-variant-position:normal;font-variant-caps:normal;font-variant-numeric:normal;font-variant-alternates:normal;font-variant-east-asian:normal;font-feature-settings:normal;font-variation-settings:normal;text-indent:0;text-align:start;text-decoration:none;text-decoration-line:none;text-decoration-style:solid;text-decoration-color:#000000;letter-spacing:normal;word-spacing:normal;text-transform:none;writing-mode:lr-tb;direction:ltr;text-orientation:mixed;dominant-baseline:auto;baseline-shift:baseline;text-anchor:start;white-space:normal;shape-padding:0;shape-margin:0;inline-size:0;clip-rule:nonzero;display:inline;overflow:visible;visibility:visible;isolation:auto;mix-blend-mode:normal;color-interpolation:sRGB;color-interpolation-filters:linearRGB;solid-color:#000000;solid-opacity:1;vector-effect:none;fill:#ffffff;fill-opacity:1;fill-rule:nonzero;stroke:none;stroke-width:1.58527;stroke-linecap:round;stroke-linejoin:miter;stroke-miterlimit:4;stroke-dasharray:none;stroke-dashoffset:0;stroke-opacity:1;color-rendering:auto;image-rendering:auto;shape-rendering:auto;text-rendering:auto;enable-background:accumulate;stop-color:#000000;stop-opacity:1;opacity:1"
       d="M 13.808594 1037.3027 A 0.79263502 0.79263502 0 0 0 13.224609 1037.5352 A 0.79263502 0.79263502 0 0 0 13.224609 1038.6562 C 13.544806 1038.9763 13.724616 1039.4089 13.724609 1039.8613 C 13.724598 1040.3137 13.544789 1040.7483 13.224609 1041.0684 A 0.79263502 0.79263502 0 0 0 13.224609 1042.1895 A 0.79263502 0.79263502 0 0 0 14.345703 1042.1895 C 14.962816 1041.5727 15.310525 1040.7338 15.310547 1039.8613 C 15.31056 1038.9888 14.962848 1038.152 14.345703 1037.5352 A 0.79263502 0.79263502 0 0 0 13.808594 1037.3027 z "
       id="path1023" />
  </g>
</svg>
