<?xml version="1.0" encoding="UTF-8" standalone="no"?>
<!-- Created with Inkscape (http://www.inkscape.org/) -->

<svg
   xmlns:dc="http://purl.org/dc/elements/1.1/"
   xmlns:cc="http://creativecommons.org/ns#"
   xmlns:rdf="http://www.w3.org/1999/02/22-rdf-syntax-ns#"
   xmlns:svg="http://www.w3.org/2000/svg"
   xmlns="http://www.w3.org/2000/svg"
   xmlns:sodipodi="http://sodipodi.sourceforge.net/DTD/sodipodi-0.dtd"
   xmlns:inkscape="http://www.inkscape.org/namespaces/inkscape"
   width="25"
   height="25"
   viewBox="0 0 25 25"
   id="svg2"
   version="1.1"
   inkscape:version="0.91 r13725"
   sodipodi:docname="ctrl.svg"
   inkscape:export-filename="/home/ossman/devel/noVNC/images/drag.png"
   inkscape:export-xdpi="90"
   inkscape:export-ydpi="90">
  <defs
     id="defs4" />
  <sodipodi:namedview
     id="base"
     pagecolor="#959595"
     bordercolor="#666666"
     borderopacity="1.0"
     inkscape:pageopacity="0"
     inkscape:pageshadow="2"
     inkscape:zoom="16"
     inkscape:cx="18.205425"
     inkscape:cy="17.531398"
     inkscape:document-units="px"
     inkscape:current-layer="layer1"
     showgrid="false"
     units="px"
     inkscape:snap-bbox="true"
     inkscape:bbox-paths="true"
     inkscape:bbox-nodes="true"
     inkscape:snap-bbox-edge-midpoints="true"
     inkscape:object-paths="true"
     showguides="true"
     inkscape:window-width="1920"
     inkscape:window-height="1136"
     inkscape:window-x="1920"
     inkscape:window-y="27"
     inkscape:window-maximized="1"
     inkscape:snap-smooth-nodes="true"
     inkscape:object-nodes="true"
     inkscape:snap-intersection-paths="true"
     inkscape:snap-nodes="true"
     inkscape:snap-global="true">
    <inkscape:grid
       type="xygrid"
       id="grid4136" />
  </sodipodi:namedview>
  <metadata
     id="metadata7">
    <rdf:RDF>
      <cc:Work
         rdf:about="">
        <dc:format>image/svg+xml</dc:format>
        <dc:type
           rdf:resource="http://purl.org/dc/dcmitype/StillImage" />
        <dc:title></dc:title>
      </cc:Work>
    </rdf:RDF>
  </metadata>
  <g
     inkscape:label="Layer 1"
     inkscape:groupmode="layer"
     id="layer1"
     transform="translate(0,-1027.3622)">
    <g
       style="font-style:normal;font-variant:normal;font-weight:bold;font-stretch:normal;font-size:48px;line-height:125%;font-family:'DejaVu Sans';-inkscape-font-specification:'Sans Bold';text-align:start;letter-spacing:0px;word-spacing:0px;writing-mode:lr-tb;text-anchor:start;fill:#000000;fill-opacity:1;stroke:none;stroke-width:1px;stroke-linecap:butt;stroke-linejoin:miter;stroke-opacity:1"
       id="text5290">
      <path
         d="m 9.1210938,1043.1898 q -0.5175782,0.2686 -1.0791016,0.4053 -0.5615235,0.1367 -1.171875,0.1367 -1.8212891,0 -2.8857422,-1.0156 -1.0644531,-1.0205 -1.0644531,-2.7637 0,-1.748 1.0644531,-2.7637 1.0644531,-1.0205 2.8857422,-1.0205 0.6103515,0 1.171875,0.1368 0.5615234,0.1367 1.0791016,0.4052 l 0,1.5088 q -0.522461,-0.3564 -1.0302735,-0.5224 -0.5078125,-0.1661 -1.0693359,-0.1661 -1.0058594,0 -1.5820313,0.6446 -0.5761719,0.6445 -0.5761719,1.7773 0,1.1279 0.5761719,1.7725 0.5761719,0.6445 1.5820313,0.6445 0.5615234,0 1.0693359,-0.166 0.5078125,-0.166 1.0302735,-0.5225 l 0,1.5088 z"
         style="font-size:10px;fill:#ffffff;fill-opacity:1"
         id="path5370" />
      <path
         d="m 12.514648,1036.5687 0,1.5528 1.801758,0 0,1.25 -1.801758,0 0,2.3193 q 0,0.3809 0.151368,0.5176 0.151367,0.1318 0.600586,0.1318 l 0.898437,0 0,1.25 -1.499023,0 q -1.035157,0 -1.469727,-0.4297 -0.429687,-0.4345 -0.429687,-1.4697 l 0,-2.3193 -0.8691411,0 0,-1.25 0.8691411,0 0,-1.5528 1.748046,0 z"
         style="font-size:10px;fill:#ffffff;fill-opacity:1"
         id="path5372" />
      <path
         d="m 19.453125,1039.6107 q -0.229492,-0.1074 -0.458984,-0.1562 -0.22461,-0.054 -0.454102,-0.054 -0.673828,0 -1.040039,0.4345 -0.361328,0.4297 -0.361328,1.2354 l 0,2.5195 -1.748047,0 0,-5.4687 1.748047,0 0,0.8984 q 0.336914,-0.5371 0.771484,-0.7813 0.439453,-0.249 1.049805,-0.249 0.08789,0 0.19043,0.01 0.102539,0 0.297851,0.029 l 0.0049,1.582 z"
         style="font-size:10px;fill:#ffffff;fill-opacity:1"
         id="path5374" />
      <path
         d="m 20.332031,1035.9926 1.748047,0 0,7.5976 -1.748047,0 0,-7.5976 z"
         style="font-size:10px;fill:#ffffff;fill-opacity:1"
         id="path5376" />
    </g>
  </g>
</svg>
