<?xml version="1.0" encoding="UTF-8" standalone="no"?>
<!-- Created with Inkscape (http://www.inkscape.org/) -->

<svg
   xmlns:dc="http://purl.org/dc/elements/1.1/"
   xmlns:cc="http://creativecommons.org/ns#"
   xmlns:rdf="http://www.w3.org/1999/02/22-rdf-syntax-ns#"
   xmlns:svg="http://www.w3.org/2000/svg"
   xmlns="http://www.w3.org/2000/svg"
   xmlns:sodipodi="http://sodipodi.sourceforge.net/DTD/sodipodi-0.dtd"
   xmlns:inkscape="http://www.inkscape.org/namespaces/inkscape"
   width="25"
   height="25"
   viewBox="0 0 25 25"
   id="svg2"
   version="1.1"
   inkscape:version="0.91 r13725"
   sodipodi:docname="disconnect.svg"
   inkscape:export-filename="/home/ossman/devel/noVNC/images/drag.png"
   inkscape:export-xdpi="90"
   inkscape:export-ydpi="90">
  <defs
     id="defs4" />
  <sodipodi:namedview
     id="base"
     pagecolor="#959595"
     bordercolor="#666666"
     borderopacity="1.0"
     inkscape:pageopacity="0"
     inkscape:pageshadow="2"
     inkscape:zoom="16"
     inkscape:cx="25.05707"
     inkscape:cy="11.594858"
     inkscape:document-units="px"
     inkscape:current-layer="layer1"
     showgrid="false"
     units="px"
     inkscape:snap-bbox="true"
     inkscape:bbox-paths="true"
     inkscape:bbox-nodes="true"
     inkscape:snap-bbox-edge-midpoints="true"
     inkscape:object-paths="true"
     showguides="true"
     inkscape:window-width="1920"
     inkscape:window-height="1136"
     inkscape:window-x="1920"
     inkscape:window-y="27"
     inkscape:window-maximized="1"
     inkscape:snap-smooth-nodes="true"
     inkscape:object-nodes="true"
     inkscape:snap-intersection-paths="true"
     inkscape:snap-nodes="true"
     inkscape:snap-global="false">
    <inkscape:grid
       type="xygrid"
       id="grid4136" />
  </sodipodi:namedview>
  <metadata
     id="metadata7">
    <rdf:RDF>
      <cc:Work
         rdf:about="">
        <dc:format>image/svg+xml</dc:format>
        <dc:type
           rdf:resource="http://purl.org/dc/dcmitype/StillImage" />
        <dc:title></dc:title>
      </cc:Work>
    </rdf:RDF>
  </metadata>
  <g
     inkscape:label="Layer 1"
     inkscape:groupmode="layer"
     id="layer1"
     transform="translate(0,-1027.3622)">
    <g
       id="g5171"
       transform="translate(-24.062499,-6.15775e-4)">
      <path
         id="path5110"
         transform="translate(0,1027.3622)"
         d="m 39.744141,3.4960938 c -0.769923,0 -1.539607,0.2915468 -2.121094,0.8730468 l -2.566406,2.5664063 1.414062,1.4140625 2.566406,-2.5664063 c 0.403974,-0.404 1.010089,-0.404 1.414063,0 l 2.828125,2.828125 c 0.40398,0.4039 0.403907,1.0101621 0,1.4140629 l -2.566406,2.566406 1.414062,1.414062 2.566406,-2.566406 c 1.163041,-1.1629 1.162968,-3.0791874 0,-4.2421874 L 41.865234,4.3691406 C 41.283747,3.7876406 40.514063,3.4960937 39.744141,3.4960938 Z M 39.017578,9.015625 a 1.0001,1.0001 0 0 0 -0.6875,0.3027344 l -0.445312,0.4453125 1.414062,1.4140621 0.445313,-0.445312 A 1.0001,1.0001 0 0 0 39.017578,9.015625 Z m -6.363281,0.7070312 a 1.0001,1.0001 0 0 0 -0.6875,0.3027348 L 28.431641,13.5625 c -1.163042,1.163 -1.16297,3.079187 0,4.242188 l 2.828125,2.828124 c 1.162974,1.163101 3.079213,1.163101 4.242187,0 l 3.535156,-3.535156 a 1.0001,1.0001 0 1 0 -1.414062,-1.414062 l -3.535156,3.535156 c -0.403974,0.404 -1.010089,0.404 -1.414063,0 l -2.828125,-2.828125 c -0.403981,-0.404 -0.403908,-1.010162 0,-1.414063 l 3.535156,-3.537109 A 1.0001,1.0001 0 0 0 32.654297,9.7226562 Z m 3.109375,2.1621098 -2.382813,2.384765 a 1.0001,1.0001 0 1 0 1.414063,1.414063 l 2.382812,-2.384766 -1.414062,-1.414062 z"
         style="color:#000000;font-style:normal;font-variant:normal;font-weight:normal;font-stretch:normal;font-size:medium;line-height:normal;font-family:sans-serif;text-indent:0;text-align:start;text-decoration:none;text-decoration-line:none;text-decoration-style:solid;text-decoration-color:#000000;letter-spacing:normal;word-spacing:normal;text-transform:none;direction:ltr;block-progression:tb;writing-mode:lr-tb;baseline-shift:baseline;text-anchor:start;white-space:normal;clip-rule:nonzero;display:inline;overflow:visible;visibility:visible;opacity:1;isolation:auto;mix-blend-mode:normal;color-interpolation:sRGB;color-interpolation-filters:linearRGB;solid-color:#000000;solid-opacity:1;fill:#ffffff;fill-opacity:1;fill-rule:nonzero;stroke:none;stroke-width:2;stroke-linecap:round;stroke-linejoin:round;stroke-miterlimit:4;stroke-dasharray:none;stroke-dashoffset:0;stroke-opacity:1;color-rendering:auto;image-rendering:auto;shape-rendering:auto;text-rendering:auto;enable-background:accumulate"
         inkscape:connector-curvature="0" />
      <rect
         transform="matrix(0.70710678,-0.70710678,0.70710678,0.70710678,0,0)"
         y="752.29541"
         x="-712.31262"
         height="18.000017"
         width="3"
         id="rect5116"
         style="opacity:1;fill:#ffffff;fill-opacity:1;stroke:none;stroke-width:2;stroke-linecap:round;stroke-linejoin:round;stroke-miterlimit:4;stroke-dasharray:none;stroke-dashoffset:0;stroke-opacity:1" />
    </g>
  </g>
</svg>
