<?xml version="1.0" encoding="UTF-8" standalone="no"?>
<!-- Created with Inkscape (http://www.inkscape.org/) -->

<svg
   xmlns:dc="http://purl.org/dc/elements/1.1/"
   xmlns:cc="http://creativecommons.org/ns#"
   xmlns:rdf="http://www.w3.org/1999/02/22-rdf-syntax-ns#"
   xmlns:svg="http://www.w3.org/2000/svg"
   xmlns="http://www.w3.org/2000/svg"
   xmlns:sodipodi="http://sodipodi.sourceforge.net/DTD/sodipodi-0.dtd"
   xmlns:inkscape="http://www.inkscape.org/namespaces/inkscape"
   width="25"
   height="25"
   viewBox="0 0 25 25"
   id="svg2"
   version="1.1"
   inkscape:version="0.91 r13725"
   sodipodi:docname="drag.svg"
   inkscape:export-filename="/home/ossman/devel/noVNC/images/drag.png"
   inkscape:export-xdpi="90"
   inkscape:export-ydpi="90">
  <defs
     id="defs4" />
  <sodipodi:namedview
     id="base"
     pagecolor="#959595"
     bordercolor="#666666"
     borderopacity="1.0"
     inkscape:pageopacity="0"
     inkscape:pageshadow="2"
     inkscape:zoom="22.627417"
     inkscape:cx="9.8789407"
     inkscape:cy="9.5008608"
     inkscape:document-units="px"
     inkscape:current-layer="layer1"
     showgrid="true"
     units="px"
     inkscape:snap-bbox="true"
     inkscape:bbox-paths="true"
     inkscape:bbox-nodes="true"
     inkscape:snap-bbox-edge-midpoints="true"
     inkscape:object-paths="true"
     showguides="false"
     inkscape:window-width="1920"
     inkscape:window-height="1136"
     inkscape:window-x="1920"
     inkscape:window-y="27"
     inkscape:window-maximized="1">
    <inkscape:grid
       type="xygrid"
       id="grid4136" />
  </sodipodi:namedview>
  <metadata
     id="metadata7">
    <rdf:RDF>
      <cc:Work
         rdf:about="">
        <dc:format>image/svg+xml</dc:format>
        <dc:type
           rdf:resource="http://purl.org/dc/dcmitype/StillImage" />
        <dc:title></dc:title>
      </cc:Work>
    </rdf:RDF>
  </metadata>
  <g
     inkscape:label="Layer 1"
     inkscape:groupmode="layer"
     id="layer1"
     transform="translate(0,-1027.3622)">
    <path
       style="opacity:1;fill:#ffffff;fill-opacity:1;stroke:none;stroke-width:1;stroke-linecap:round;stroke-linejoin:miter;stroke-miterlimit:4;stroke-dasharray:none;stroke-dashoffset:0;stroke-opacity:1"
       d="m 7.039733,1049.3037 c -0.4309106,-0.1233 -0.7932634,-0.4631 -0.9705434,-0.9103 -0.04922,-0.1241 -0.057118,-0.2988 -0.071321,-1.5771 l -0.015972,-1.4375 -0.328125,-0.082 c -0.7668138,-0.1927 -1.1897046,-0.4275 -1.7031253,-0.9457 -0.4586773,-0.4629 -0.6804297,-0.8433 -0.867034,-1.4875 -0.067215,-0.232 -0.068001,-0.2642 -0.078682,-3.2188 -0.012078,-3.341 -0.020337,-3.2012 0.2099452,-3.5555 0.2246623,-0.3458 0.5798271,-0.5892 0.9667343,-0.6626 0.092506,-0.017 0.531898,-0.032 0.9764271,-0.032 l 0.8082347,0 1.157e-4,1.336 c 1.125e-4,1.2779 0.00281,1.3403 0.062214,1.4378 0.091785,0.1505 0.2357707,0.226 0.4314082,0.2261 0.285389,2e-4 0.454884,-0.1352 0.5058962,-0.4042 0.019355,-0.102 0.031616,-0.982 0.031616,-2.269 0,-1.9756 0.00357,-2.1138 0.059205,-2.2926 0.1645475,-0.5287 0.6307616,-0.9246 1.19078,-1.0113 0.8000572,-0.1238 1.5711277,0.4446 1.6860387,1.2429 0.01732,0.1203 0.03177,0.8248 0.03211,1.5657 6.19e-4,1.3449 7.22e-4,1.347 0.07093,1.4499 0.108355,0.1587 0.255268,0.2248 0.46917,0.2108 0.204069,-0.013 0.316116,-0.08 0.413642,-0.2453 0.06028,-0.1024 0.06307,-0.1778 0.07862,-2.1218 0.01462,-1.8283 0.02124,-2.0285 0.07121,-2.1549 0.260673,-0.659 0.934894,-1.0527 1.621129,-0.9465 0.640523,0.099 1.152269,0.6104 1.243187,1.2421 0.01827,0.1269 0.03175,0.9943 0.03211,2.0657 l 6.19e-4,1.8469 0.07031,0.103 c 0.108355,0.1587 0.255267,0.2248 0.46917,0.2108 0.204069,-0.013 0.316115,-0.08 0.413642,-0.2453 0.05951,-0.1011 0.06329,-0.1786 0.07907,-1.6218 0.01469,-1.3438 0.02277,-1.5314 0.07121,-1.6549 0.257975,-0.6576 0.934425,-1.0527 1.620676,-0.9465 0.640522,0.099 1.152269,0.6104 1.243186,1.2421 0.0186,0.1292 0.03179,1.0759 0.03222,2.3125 7.15e-4,2.0335 0.0025,2.0966 0.06283,2.1956 0.09178,0.1505 0.235771,0.226 0.431409,0.2261 0.285388,2e-4 0.454884,-0.1352 0.505897,-0.4042 0.01874,-0.099 0.03161,-0.8192 0.03161,-1.769 0,-1.4848 0.0043,-1.6163 0.0592,-1.7926 0.164548,-0.5287 0.630762,-0.9246 1.19078,-1.0113 0.800057,-0.1238 1.571128,0.4446 1.686039,1.2429 0.04318,0.2999 0.04372,9.1764 5.78e-4,9.4531 -0.04431,0.2841 -0.217814,0.6241 -0.420069,0.8232 -0.320102,0.315 -0.63307,0.4268 -1.194973,0.4268 l -0.35281,0 -2.51e-4,1.2734 c -1.25e-4,0.7046 -0.01439,1.3642 -0.03191,1.4766 -0.06665,0.4274 -0.372966,0.8704 -0.740031,1.0702 -0.349999,0.1905 0.01748,0.18 -6.242199,0.1776 -5.3622439,0 -5.7320152,-0.01 -5.9121592,-0.057 l 1.4e-5,0 z"
       id="path4379"
       inkscape:connector-curvature="0" />
  </g>
</svg>
