<?xml version="1.0" encoding="UTF-8" standalone="no"?>
<!-- Created with Inkscape (http://www.inkscape.org/) -->

<svg
   xmlns:dc="http://purl.org/dc/elements/1.1/"
   xmlns:cc="http://creativecommons.org/ns#"
   xmlns:rdf="http://www.w3.org/1999/02/22-rdf-syntax-ns#"
   xmlns:svg="http://www.w3.org/2000/svg"
   xmlns="http://www.w3.org/2000/svg"
   xmlns:sodipodi="http://sodipodi.sourceforge.net/DTD/sodipodi-0.dtd"
   xmlns:inkscape="http://www.inkscape.org/namespaces/inkscape"
   width="25"
   height="25"
   viewBox="0 0 25 25"
   id="svg2"
   version="1.1"
   inkscape:version="0.91 r13725"
   sodipodi:docname="error.svg"
   inkscape:export-filename="/home/ossman/devel/noVNC/images/drag.png"
   inkscape:export-xdpi="90"
   inkscape:export-ydpi="90">
  <defs
     id="defs4" />
  <sodipodi:namedview
     id="base"
     pagecolor="#959595"
     bordercolor="#666666"
     borderopacity="1.0"
     inkscape:pageopacity="0"
     inkscape:pageshadow="2"
     inkscape:zoom="1"
     inkscape:cx="14.00357"
     inkscape:cy="12.443398"
     inkscape:document-units="px"
     inkscape:current-layer="layer1"
     showgrid="false"
     units="px"
     inkscape:snap-bbox="true"
     inkscape:bbox-paths="true"
     inkscape:bbox-nodes="true"
     inkscape:snap-bbox-edge-midpoints="true"
     inkscape:object-paths="true"
     showguides="true"
     inkscape:window-width="1920"
     inkscape:window-height="1136"
     inkscape:window-x="1920"
     inkscape:window-y="27"
     inkscape:window-maximized="1"
     inkscape:snap-smooth-nodes="true"
     inkscape:object-nodes="true"
     inkscape:snap-intersection-paths="true"
     inkscape:snap-nodes="true"
     inkscape:snap-global="true">
    <inkscape:grid
       type="xygrid"
       id="grid4136" />
  </sodipodi:namedview>
  <metadata
     id="metadata7">
    <rdf:RDF>
      <cc:Work
         rdf:about="">
        <dc:format>image/svg+xml</dc:format>
        <dc:type
           rdf:resource="http://purl.org/dc/dcmitype/StillImage" />
        <dc:title />
      </cc:Work>
    </rdf:RDF>
  </metadata>
  <g
     inkscape:label="Layer 1"
     inkscape:groupmode="layer"
     id="layer1"
     transform="translate(0,-1027.3622)">
    <path
       style="opacity:1;fill:#ffffff;fill-opacity:1;stroke:none;stroke-width:1;stroke-linecap:round;stroke-linejoin:round;stroke-miterlimit:4;stroke-dasharray:none;stroke-dashoffset:0;stroke-opacity:1"
       d="M 7 3 C 4.7839905 3 3 4.7839905 3 7 L 3 18 C 3 20.21601 4.7839905 22 7 22 L 18 22 C 20.21601 22 22 20.21601 22 18 L 22 7 C 22 4.7839905 20.21601 3 18 3 L 7 3 z M 7.6992188 6 A 1.6916875 1.6924297 0 0 1 8.9121094 6.5117188 L 12.5 10.101562 L 16.087891 6.5117188 A 1.6916875 1.6924297 0 0 1 17.251953 6 A 1.6916875 1.6924297 0 0 1 18.480469 8.90625 L 14.892578 12.496094 L 18.480469 16.085938 A 1.6916875 1.6924297 0 1 1 16.087891 18.478516 L 12.5 14.888672 L 8.9121094 18.478516 A 1.6916875 1.6924297 0 1 1 6.5214844 16.085938 L 10.109375 12.496094 L 6.5214844 8.90625 A 1.6916875 1.6924297 0 0 1 7.6992188 6 z "
       transform="translate(0,1027.3622)"
       id="rect4135" />
  </g>
</svg>
