<?xml version="1.0" encoding="UTF-8" standalone="no"?>
<!-- Created with Inkscape (http://www.inkscape.org/) -->

<svg
   xmlns:dc="http://purl.org/dc/elements/1.1/"
   xmlns:cc="http://creativecommons.org/ns#"
   xmlns:rdf="http://www.w3.org/1999/02/22-rdf-syntax-ns#"
   xmlns:svg="http://www.w3.org/2000/svg"
   xmlns="http://www.w3.org/2000/svg"
   xmlns:sodipodi="http://sodipodi.sourceforge.net/DTD/sodipodi-0.dtd"
   xmlns:inkscape="http://www.inkscape.org/namespaces/inkscape"
   width="25"
   height="25"
   viewBox="0 0 25 25"
   id="svg2"
   version="1.1"
   inkscape:version="0.91 r13725"
   sodipodi:docname="esc.svg"
   inkscape:export-filename="/home/ossman/devel/noVNC/images/drag.png"
   inkscape:export-xdpi="90"
   inkscape:export-ydpi="90">
  <defs
     id="defs4" />
  <sodipodi:namedview
     id="base"
     pagecolor="#959595"
     bordercolor="#666666"
     borderopacity="1.0"
     inkscape:pageopacity="0"
     inkscape:pageshadow="2"
     inkscape:zoom="16"
     inkscape:cx="18.205425"
     inkscape:cy="17.531398"
     inkscape:document-units="px"
     inkscape:current-layer="text5290"
     showgrid="false"
     units="px"
     inkscape:snap-bbox="true"
     inkscape:bbox-paths="true"
     inkscape:bbox-nodes="true"
     inkscape:snap-bbox-edge-midpoints="true"
     inkscape:object-paths="true"
     showguides="true"
     inkscape:window-width="1920"
     inkscape:window-height="1136"
     inkscape:window-x="1920"
     inkscape:window-y="27"
     inkscape:window-maximized="1"
     inkscape:snap-smooth-nodes="true"
     inkscape:object-nodes="true"
     inkscape:snap-intersection-paths="true"
     inkscape:snap-nodes="true"
     inkscape:snap-global="true">
    <inkscape:grid
       type="xygrid"
       id="grid4136" />
  </sodipodi:namedview>
  <metadata
     id="metadata7">
    <rdf:RDF>
      <cc:Work
         rdf:about="">
        <dc:format>image/svg+xml</dc:format>
        <dc:type
           rdf:resource="http://purl.org/dc/dcmitype/StillImage" />
        <dc:title></dc:title>
      </cc:Work>
    </rdf:RDF>
  </metadata>
  <g
     inkscape:label="Layer 1"
     inkscape:groupmode="layer"
     id="layer1"
     transform="translate(0,-1027.3622)">
    <g
       style="font-style:normal;font-variant:normal;font-weight:bold;font-stretch:normal;font-size:48px;line-height:125%;font-family:'DejaVu Sans';-inkscape-font-specification:'Sans Bold';text-align:start;letter-spacing:0px;word-spacing:0px;writing-mode:lr-tb;text-anchor:start;fill:#000000;fill-opacity:1;stroke:none;stroke-width:1px;stroke-linecap:butt;stroke-linejoin:miter;stroke-opacity:1"
       id="text5290">
      <path
         d="m 3.9331055,1036.1464 5.0732422,0 0,1.4209 -3.1933594,0 0,1.3574 3.0029297,0 0,1.4209 -3.0029297,0 0,1.6699 3.3007812,0 0,1.4209 -5.180664,0 0,-7.29 z"
         style="font-size:10px;fill:#ffffff;fill-opacity:1"
         id="path5314" />
      <path
         d="m 14.963379,1038.1385 0,1.3282 q -0.561524,-0.2344 -1.083984,-0.3516 -0.522461,-0.1172 -0.986329,-0.1172 -0.498046,0 -0.742187,0.127 -0.239258,0.122 -0.239258,0.3808 0,0.21 0.180664,0.3223 0.185547,0.1123 0.65918,0.166 l 0.307617,0.044 q 1.342773,0.1709 1.806641,0.5615 0.463867,0.3906 0.463867,1.2256 0,0.874 -0.644531,1.3134 -0.644532,0.4395 -1.923829,0.4395 -0.541992,0 -1.123046,-0.088 -0.576172,-0.083 -1.186524,-0.2539 l 0,-1.3281 q 0.522461,0.2539 1.069336,0.3808 0.551758,0.127 1.118164,0.127 0.512695,0 0.771485,-0.1416 0.258789,-0.1416 0.258789,-0.4199 0,-0.2344 -0.180664,-0.3467 -0.175782,-0.1172 -0.708008,-0.1807 l -0.307617,-0.039 q -1.166993,-0.1465 -1.635743,-0.542 -0.46875,-0.3955 -0.46875,-1.2012 0,-0.8691 0.595703,-1.2891 0.595704,-0.4199 1.826172,-0.4199 0.483399,0 1.015625,0.073 0.532227,0.073 1.157227,0.2294 z"
         style="font-size:10px;fill:#ffffff;fill-opacity:1"
         id="path5316" />
      <path
         d="m 21.066895,1038.1385 0,1.4258 q -0.356446,-0.2441 -0.717774,-0.3613 -0.356445,-0.1172 -0.742187,-0.1172 -0.732422,0 -1.142579,0.4297 -0.405273,0.4248 -0.405273,1.1914 0,0.7666 0.405273,1.1963 0.410157,0.4248 1.142579,0.4248 0.410156,0 0.776367,-0.1221 0.371094,-0.122 0.683594,-0.3613 l 0,1.4307 q -0.410157,0.1513 -0.834961,0.2246 -0.419922,0.078 -0.844727,0.078 -1.479492,0 -2.314453,-0.7568 -0.834961,-0.7618 -0.834961,-2.1143 0,-1.3525 0.834961,-2.1094 0.834961,-0.7617 2.314453,-0.7617 0.429688,0 0.844727,0.078 0.419921,0.073 0.834961,0.2246 z"
         style="font-size:10px;fill:#ffffff;fill-opacity:1"
         id="path5318" />
    </g>
  </g>
</svg>
