<?xml version="1.0" encoding="utf-8"?>
<!-- Generator: Adobe Illustrator 16.0.0, SVG Export Plug-In . SVG Version: 6.00 Build 0)  -->
<!DOCTYPE svg PUBLIC "-//W3C//DTD SVG 1.1//EN" "http://www.w3.org/Graphics/SVG/1.1/DTD/svg11.dtd">
<svg version="1.1"
	 id="svg2" xmlns:dc="http://purl.org/dc/elements/1.1/" xmlns:cc="http://creativecommons.org/ns#" xmlns:rdf="http://www.w3.org/1999/02/22-rdf-syntax-ns#" xmlns:svg="http://www.w3.org/2000/svg" xmlns:sodipodi="http://sodipodi.sourceforge.net/DTD/sodipodi-0.dtd" xmlns:inkscape="http://www.inkscape.org/namespaces/inkscape" inkscape:export-xdpi="90" inkscape:export-filename="/home/ossman/devel/noVNC/images/drag.png" sodipodi:docname="ctrl.svg" inkscape:version="0.91 r13725" inkscape:export-ydpi="90"
	 xmlns="http://www.w3.org/2000/svg" xmlns:xlink="http://www.w3.org/1999/xlink" x="0px" y="0px" width="25px" height="25px"
	 viewBox="0 0 25 25" enable-background="new 0 0 25 25" xml:space="preserve">
<sodipodi:namedview  showguides="true" showgrid="false" inkscape:cy="17.531398" inkscape:cx="18.205425" inkscape:zoom="16" borderopacity="1.0" bordercolor="#666666" pagecolor="#959595" id="base" units="px" inkscape:snap-nodes="true" inkscape:object-nodes="true" inkscape:snap-smooth-nodes="true" inkscape:window-maximized="1" inkscape:window-y="27" inkscape:window-x="1920" inkscape:window-height="1136" inkscape:window-width="1920" inkscape:object-paths="true" inkscape:bbox-nodes="true" inkscape:bbox-paths="true" inkscape:snap-bbox="true" inkscape:pageshadow="2" inkscape:current-layer="layer1" inkscape:pageopacity="0" inkscape:document-units="px" inkscape:snap-intersection-paths="true" inkscape:snap-bbox-edge-midpoints="true" inkscape:snap-global="true">
	<inkscape:grid  id="grid4136" type="xygrid"></inkscape:grid>
</sodipodi:namedview>
<g>
	<path fill="#FFFFFF" d="M6.523,8.938h5.073v1.421H8.403v1.357h3.003v1.421H8.403v3.091h-1.88V8.938z"/>
	<path fill="#FFFFFF" d="M18.378,9.128v1.348c-0.31-0.146-0.601-0.255-0.874-0.324c-0.273-0.07-0.54-0.105-0.801-0.105
		c-0.56,0-0.996,0.155-1.309,0.467c-0.312,0.311-0.494,0.771-0.547,1.384c0.215-0.159,0.448-0.279,0.698-0.358
		c0.251-0.08,0.523-0.12,0.82-0.12c0.745,0,1.347,0.218,1.804,0.654c0.458,0.437,0.687,1.008,0.687,1.714
		c0,0.781-0.256,1.407-0.767,1.877c-0.511,0.471-1.196,0.706-2.056,0.706c-0.947,0-1.681-0.319-2.199-0.96
		c-0.52-0.639-0.779-1.547-0.779-2.722c0-1.204,0.304-2.151,0.911-2.839c0.606-0.689,1.439-1.033,2.497-1.033
		c0.335,0,0.661,0.026,0.977,0.078S18.068,9.023,18.378,9.128z M16.054,12.629c-0.328,0-0.575,0.106-0.739,0.319
		c-0.165,0.214-0.247,0.533-0.247,0.96s0.082,0.746,0.247,0.96c0.164,0.213,0.411,0.319,0.739,0.319c0.332,0,0.58-0.106,0.745-0.319
		c0.164-0.214,0.246-0.533,0.246-0.96s-0.082-0.746-0.246-0.96C16.634,12.735,16.386,12.629,16.054,12.629z"/>
</g>
</svg>
