<?xml version="1.0" encoding="utf-8"?>
<!-- Generator: Adobe Illustrator 16.0.0, SVG Export Plug-In . SVG Version: 6.00 Build 0)  -->
<!DOCTYPE svg PUBLIC "-//W3C//DTD SVG 1.1//EN" "http://www.w3.org/Graphics/SVG/1.1/DTD/svg11.dtd">
<svg version="1.1"
	 id="svg2" xmlns:dc="http://purl.org/dc/elements/1.1/" xmlns:cc="http://creativecommons.org/ns#" xmlns:rdf="http://www.w3.org/1999/02/22-rdf-syntax-ns#" xmlns:svg="http://www.w3.org/2000/svg" xmlns:sodipodi="http://sodipodi.sourceforge.net/DTD/sodipodi-0.dtd" xmlns:inkscape="http://www.inkscape.org/namespaces/inkscape" inkscape:export-xdpi="90" inkscape:export-filename="/home/ossman/devel/noVNC/images/drag.png" sodipodi:docname="ctrl.svg" inkscape:version="0.91 r13725" inkscape:export-ydpi="90"
	 xmlns="http://www.w3.org/2000/svg" xmlns:xlink="http://www.w3.org/1999/xlink" x="0px" y="0px" width="25px" height="25px"
	 viewBox="0 0 25 25" enable-background="new 0 0 25 25" xml:space="preserve">
<sodipodi:namedview  showguides="true" showgrid="false" inkscape:cy="17.531398" inkscape:cx="18.205425" inkscape:zoom="16" borderopacity="1.0" bordercolor="#666666" pagecolor="#959595" id="base" units="px" inkscape:snap-nodes="true" inkscape:object-nodes="true" inkscape:snap-smooth-nodes="true" inkscape:window-maximized="1" inkscape:window-y="27" inkscape:window-x="1920" inkscape:window-height="1136" inkscape:window-width="1920" inkscape:object-paths="true" inkscape:bbox-nodes="true" inkscape:bbox-paths="true" inkscape:snap-bbox="true" inkscape:pageshadow="2" inkscape:current-layer="layer1" inkscape:pageopacity="0" inkscape:document-units="px" inkscape:snap-intersection-paths="true" inkscape:snap-bbox-edge-midpoints="true" inkscape:snap-global="true">
	<inkscape:grid  id="grid4136" type="xygrid"></inkscape:grid>
</sodipodi:namedview>
<g>
	<path fill="#FFFFFF" d="M6.523,8.938h5.073v1.421H8.403v1.357h3.003v1.421H8.403v3.091h-1.88V8.938z"/>
	<path fill="#FFFFFF" d="M14.545,12.346c-0.442-0.134-0.776-0.339-1.001-0.615s-0.337-0.622-0.337-1.035
		c0-0.615,0.229-1.084,0.688-1.406s1.133-0.483,2.021-0.483c0.882,0,1.553,0.16,2.012,0.48c0.459,0.321,0.688,0.791,0.688,1.409
		c0,0.413-0.113,0.759-0.34,1.035c-0.226,0.276-0.561,0.481-1.003,0.615c0.495,0.137,0.868,0.358,1.12,0.667
		c0.253,0.307,0.379,0.695,0.379,1.164c0,0.723-0.24,1.269-0.721,1.639c-0.479,0.369-1.191,0.554-2.136,0.554
		c-0.947,0-1.662-0.185-2.146-0.554c-0.483-0.37-0.726-0.916-0.726-1.639c0-0.469,0.126-0.857,0.379-1.164
		C13.677,12.704,14.051,12.482,14.545,12.346z M15.917,12.966c-0.352,0-0.621,0.096-0.811,0.288
		c-0.188,0.192-0.283,0.467-0.283,0.825s0.095,0.633,0.283,0.822c0.189,0.191,0.459,0.286,0.811,0.286
		c0.348,0,0.615-0.095,0.801-0.286c0.186-0.189,0.278-0.464,0.278-0.822c0-0.361-0.093-0.637-0.278-0.828
		C16.532,13.062,16.265,12.966,15.917,12.966z M14.984,10.886c0,0.29,0.081,0.513,0.242,0.669s0.392,0.234,0.69,0.234
		c0.293,0,0.52-0.078,0.679-0.234s0.239-0.379,0.239-0.669s-0.08-0.512-0.239-0.666c-0.159-0.155-0.386-0.232-0.679-0.232
		c-0.299,0-0.529,0.078-0.69,0.234S14.984,10.6,14.984,10.886z"/>
</g>
</svg>
