<svg xmlns="http://www.w3.org/2000/svg" width="35.947" height="52.876" viewBox="0 0 35.947 52.876">
  <g id="ic-caveo-logo-1" transform="translate(-88.237 -1132.93)">
    <path id="Caminho_260" data-name="Caminho 260" d="M106.46,1132.93a18.993,18.993,0,0,1,6.709,1.139,14.582,14.582,0,0,1,5.232,3.31,15.109,15.109,0,0,1,3.417,5.32,19.54,19.54,0,0,1,1.227,7.136,15.629,15.629,0,0,1-.106,2.029,3.221,3.221,0,0,1-.392,1.246,1.49,1.49,0,0,1-.765.64,3.575,3.575,0,0,1-1.228.178H99.271q.532,4.627,2.811,6.709a8.365,8.365,0,0,0,5.873,2.082,10.531,10.531,0,0,0,3.31-.462,16.735,16.735,0,0,0,2.473-1.032q1.086-.57,1.993-1.033a4.148,4.148,0,0,1,1.9-.462,2.281,2.281,0,0,1,1.993.961l3.2,3.95a16.413,16.413,0,0,1-3.684,3.186,19.138,19.138,0,0,1-4.057,1.921,21.971,21.971,0,0,1-4.164.962,31.241,31.241,0,0,1-3.969.266,20.726,20.726,0,0,1-7.278-1.263,16.716,16.716,0,0,1-5.944-3.755,17.7,17.7,0,0,1-4.022-6.193,23.149,23.149,0,0,1-1.477-8.613,19.479,19.479,0,0,1,1.264-7.011,17.034,17.034,0,0,1,9.36-9.752A18.912,18.912,0,0,1,106.46,1132.93Zm.213,7.616a6.653,6.653,0,0,0-4.947,1.8,9.374,9.374,0,0,0-2.349,5.179h13.774a9.762,9.762,0,0,0-.338-2.563,6.23,6.23,0,0,0-1.1-2.224,5.639,5.639,0,0,0-2.011-1.584A6.886,6.886,0,0,0,106.673,1140.546Z" fill="#fff"/>
    <path id="Caminho_261" data-name="Caminho 261" d="M102.055,1177.094a22.384,22.384,0,0,1-2.594-1.108q-1.145-.588-2.123-1.047a4.691,4.691,0,0,0-2.071-.449,2.609,2.609,0,0,0-2.18.987q-1.731,1.99-3.336,4.03c1.261,1.205,7.023,6.3,17.214,6.3s15.96-5.116,17.219-6.323q-1.609-2.036-3.343-4.025a2.611,2.611,0,0,0-2.182-.984,4.692,4.692,0,0,0-2.071.452q-.975.462-2.121,1.049a22.4,22.4,0,0,1-2.592,1.112,16.438,16.438,0,0,1-9.82.007Z" fill="#fff"/>
  </g>
</svg>
