<?xml version="1.0" encoding="UTF-8" standalone="no"?>
<!-- Created with Inkscape (http://www.inkscape.org/) -->

<svg
   xmlns:dc="http://purl.org/dc/elements/1.1/"
   xmlns:cc="http://creativecommons.org/ns#"
   xmlns:rdf="http://www.w3.org/1999/02/22-rdf-syntax-ns#"
   xmlns:svg="http://www.w3.org/2000/svg"
   xmlns="http://www.w3.org/2000/svg"
   xmlns:sodipodi="http://sodipodi.sourceforge.net/DTD/sodipodi-0.dtd"
   xmlns:inkscape="http://www.inkscape.org/namespaces/inkscape"
   width="25"
   height="25"
   viewBox="0 0 25 25"
   id="svg2"
   version="1.1"
   inkscape:version="0.91 r13725"
   sodipodi:docname="info.svg"
   inkscape:export-filename="/home/ossman/devel/noVNC/images/drag.png"
   inkscape:export-xdpi="90"
   inkscape:export-ydpi="90">
  <defs
     id="defs4" />
  <sodipodi:namedview
     id="base"
     pagecolor="#959595"
     bordercolor="#666666"
     borderopacity="1.0"
     inkscape:pageopacity="0"
     inkscape:pageshadow="2"
     inkscape:zoom="1"
     inkscape:cx="15.720838"
     inkscape:cy="8.9111233"
     inkscape:document-units="px"
     inkscape:current-layer="layer1"
     showgrid="false"
     units="px"
     inkscape:snap-bbox="true"
     inkscape:bbox-paths="true"
     inkscape:bbox-nodes="true"
     inkscape:snap-bbox-edge-midpoints="true"
     inkscape:object-paths="true"
     showguides="false"
     inkscape:window-width="1920"
     inkscape:window-height="1136"
     inkscape:window-x="1920"
     inkscape:window-y="27"
     inkscape:window-maximized="1"
     inkscape:snap-smooth-nodes="true"
     inkscape:object-nodes="true"
     inkscape:snap-intersection-paths="true"
     inkscape:snap-nodes="true"
     inkscape:snap-global="true">
    <inkscape:grid
       type="xygrid"
       id="grid4136" />
  </sodipodi:namedview>
  <metadata
     id="metadata7">
    <rdf:RDF>
      <cc:Work
         rdf:about="">
        <dc:format>image/svg+xml</dc:format>
        <dc:type
           rdf:resource="http://purl.org/dc/dcmitype/StillImage" />
        <dc:title />
      </cc:Work>
    </rdf:RDF>
  </metadata>
  <g
     inkscape:label="Layer 1"
     inkscape:groupmode="layer"
     id="layer1"
     transform="translate(0,-1027.3622)">
    <path
       style="opacity:1;fill:#ffffff;fill-opacity:1;stroke:none;stroke-width:1;stroke-linecap:round;stroke-linejoin:round;stroke-miterlimit:4;stroke-dasharray:none;stroke-dashoffset:0;stroke-opacity:1"
       d="M 12.5 3 A 9.5 9.4999914 0 0 0 3 12.5 A 9.5 9.4999914 0 0 0 12.5 22 A 9.5 9.4999914 0 0 0 22 12.5 A 9.5 9.4999914 0 0 0 12.5 3 z M 12.5 5 A 1.5 1.5000087 0 0 1 14 6.5 A 1.5 1.5000087 0 0 1 12.5 8 A 1.5 1.5000087 0 0 1 11 6.5 A 1.5 1.5000087 0 0 1 12.5 5 z M 10.521484 8.9785156 L 12.521484 8.9785156 A 1.50015 1.50015 0 0 1 14.021484 10.478516 L 14.021484 15.972656 A 1.50015 1.50015 0 0 1 14.498047 18.894531 C 14.498047 18.894531 13.74301 19.228309 12.789062 18.912109 C 12.312092 18.754109 11.776235 18.366625 11.458984 17.828125 C 11.141734 17.289525 11.021484 16.668469 11.021484 15.980469 L 11.021484 11.980469 L 10.521484 11.980469 A 1.50015 1.50015 0 1 1 10.521484 8.9804688 L 10.521484 8.9785156 z "
       transform="translate(0,1027.3622)"
       id="path4136" />
  </g>
</svg>
