<?xml version="1.0" encoding="UTF-8" standalone="no"?>
<!-- Created with Inkscape (http://www.inkscape.org/) -->

<svg
   xmlns:dc="http://purl.org/dc/elements/1.1/"
   xmlns:cc="http://creativecommons.org/ns#"
   xmlns:rdf="http://www.w3.org/1999/02/22-rdf-syntax-ns#"
   xmlns:svg="http://www.w3.org/2000/svg"
   xmlns="http://www.w3.org/2000/svg"
   xmlns:sodipodi="http://sodipodi.sourceforge.net/DTD/sodipodi-0.dtd"
   xmlns:inkscape="http://www.inkscape.org/namespaces/inkscape"
   width="25"
   height="25"
   viewBox="0 0 25 25"
   id="svg2"
   version="1.1"
   inkscape:version="0.91 r13725"
   sodipodi:docname="keyboard.svg"
   inkscape:export-filename="/home/ossman/devel/noVNC/images/keyboard.png"
   inkscape:export-xdpi="90"
   inkscape:export-ydpi="90">
  <defs
     id="defs4" />
  <sodipodi:namedview
     id="base"
     pagecolor="#717171"
     bordercolor="#666666"
     borderopacity="1.0"
     inkscape:pageopacity="0"
     inkscape:pageshadow="2"
     inkscape:zoom="1"
     inkscape:cx="31.285341"
     inkscape:cy="8.8028469"
     inkscape:document-units="px"
     inkscape:current-layer="layer1"
     showgrid="false"
     units="px"
     inkscape:snap-bbox="true"
     inkscape:bbox-paths="true"
     inkscape:bbox-nodes="true"
     inkscape:snap-bbox-edge-midpoints="true"
     inkscape:snap-bbox-midpoints="false"
     inkscape:window-width="1920"
     inkscape:window-height="1136"
     inkscape:window-x="1920"
     inkscape:window-y="27"
     inkscape:window-maximized="1"
     inkscape:object-paths="true"
     inkscape:snap-intersection-paths="true"
     inkscape:object-nodes="true"
     inkscape:snap-midpoints="true"
     inkscape:snap-smooth-nodes="true">
    <inkscape:grid
       type="xygrid"
       id="grid4136" />
  </sodipodi:namedview>
  <metadata
     id="metadata7">
    <rdf:RDF>
      <cc:Work
         rdf:about="">
        <dc:format>image/svg+xml</dc:format>
        <dc:type
           rdf:resource="http://purl.org/dc/dcmitype/StillImage" />
        <dc:title />
      </cc:Work>
    </rdf:RDF>
  </metadata>
  <g
     inkscape:label="Layer 1"
     inkscape:groupmode="layer"
     id="layer1"
     transform="translate(0,-1027.3622)">
    <path
       style="color:#000000;font-style:normal;font-variant:normal;font-weight:normal;font-stretch:normal;font-size:medium;line-height:normal;font-family:sans-serif;text-indent:0;text-align:start;text-decoration:none;text-decoration-line:none;text-decoration-style:solid;text-decoration-color:#000000;letter-spacing:normal;word-spacing:normal;text-transform:none;direction:ltr;block-progression:tb;writing-mode:lr-tb;baseline-shift:baseline;text-anchor:start;white-space:normal;clip-rule:nonzero;display:inline;overflow:visible;visibility:visible;opacity:1;isolation:auto;mix-blend-mode:normal;color-interpolation:sRGB;color-interpolation-filters:linearRGB;solid-color:#000000;solid-opacity:1;fill:#ffffff;fill-opacity:1;fill-rule:nonzero;stroke:none;stroke-width:1;stroke-linecap:butt;stroke-linejoin:round;stroke-miterlimit:4;stroke-dasharray:none;stroke-dashoffset:0;stroke-opacity:1;color-rendering:auto;image-rendering:auto;shape-rendering:auto;text-rendering:auto;enable-background:accumulate"
       d="M 7,3 C 4.8012876,3 3,4.8013 3,7 3,11.166667 3,15.333333 3,19.5 3,20.8764 4.1236413,22 5.5,22 l 14,0 C 20.876358,22 22,20.8764 22,19.5 22,15.333333 22,11.166667 22,7 22,4.8013 20.198712,3 18,3 Z m 0,2 11,0 c 1.125307,0 2,0.8747 2,2 L 20,12 5,12 5,7 C 5,5.8747 5.8746931,5 7,5 Z M 6.5,14 C 6.777,14 7,14.223 7,14.5 7,14.777 6.777,15 6.5,15 6.223,15 6,14.777 6,14.5 6,14.223 6.223,14 6.5,14 Z m 2,0 C 8.777,14 9,14.223 9,14.5 9,14.777 8.777,15 8.5,15 8.223,15 8,14.777 8,14.5 8,14.223 8.223,14 8.5,14 Z m 2,0 C 10.777,14 11,14.223 11,14.5 11,14.777 10.777,15 10.5,15 10.223,15 10,14.777 10,14.5 10,14.223 10.223,14 10.5,14 Z m 2,0 C 12.777,14 13,14.223 13,14.5 13,14.777 12.777,15 12.5,15 12.223,15 12,14.777 12,14.5 12,14.223 12.223,14 12.5,14 Z m 2,0 C 14.777,14 15,14.223 15,14.5 15,14.777 14.777,15 14.5,15 14.223,15 14,14.777 14,14.5 14,14.223 14.223,14 14.5,14 Z m 2,0 C 16.777,14 17,14.223 17,14.5 17,14.777 16.777,15 16.5,15 16.223,15 16,14.777 16,14.5 16,14.223 16.223,14 16.5,14 Z m 2,0 C 18.777,14 19,14.223 19,14.5 19,14.777 18.777,15 18.5,15 18.223,15 18,14.777 18,14.5 18,14.223 18.223,14 18.5,14 Z m -13,2 C 5.777,16 6,16.223 6,16.5 6,16.777 5.777,17 5.5,17 5.223,17 5,16.777 5,16.5 5,16.223 5.223,16 5.5,16 Z m 2,0 C 7.777,16 8,16.223 8,16.5 8,16.777 7.777,17 7.5,17 7.223,17 7,16.777 7,16.5 7,16.223 7.223,16 7.5,16 Z m 2,0 C 9.777,16 10,16.223 10,16.5 10,16.777 9.777,17 9.5,17 9.223,17 9,16.777 9,16.5 9,16.223 9.223,16 9.5,16 Z m 2,0 C 11.777,16 12,16.223 12,16.5 12,16.777 11.777,17 11.5,17 11.223,17 11,16.777 11,16.5 11,16.223 11.223,16 11.5,16 Z m 2,0 C 13.777,16 14,16.223 14,16.5 14,16.777 13.777,17 13.5,17 13.223,17 13,16.777 13,16.5 13,16.223 13.223,16 13.5,16 Z m 2,0 C 15.777,16 16,16.223 16,16.5 16,16.777 15.777,17 15.5,17 15.223,17 15,16.777 15,16.5 15,16.223 15.223,16 15.5,16 Z m 2,0 C 17.777,16 18,16.223 18,16.5 18,16.777 17.777,17 17.5,17 17.223,17 17,16.777 17,16.5 17,16.223 17.223,16 17.5,16 Z m 2,0 C 19.777,16 20,16.223 20,16.5 20,16.777 19.777,17 19.5,17 19.223,17 19,16.777 19,16.5 19,16.223 19.223,16 19.5,16 Z M 6,18 c 0.554,0 1,0.446 1,1 0,0.554 -0.446,1 -1,1 -0.554,0 -1,-0.446 -1,-1 0,-0.554 0.446,-1 1,-1 z m 2.8261719,0 7.3476561,0 C 16.631643,18 17,18.368372 17,18.826172 l 0,0.347656 C 17,19.631628 16.631643,20 16.173828,20 L 8.8261719,20 C 8.3683573,20 8,19.631628 8,19.173828 L 8,18.826172 C 8,18.368372 8.3683573,18 8.8261719,18 Z m 10.1113281,0 0.125,0 C 19.581551,18 20,18.4184 20,18.9375 l 0,0.125 C 20,19.5816 19.581551,20 19.0625,20 l -0.125,0 C 18.418449,20 18,19.5816 18,19.0625 l 0,-0.125 C 18,18.4184 18.418449,18 18.9375,18 Z"
       transform="translate(0,1027.3622)"
       id="rect4160"
       inkscape:connector-curvature="0"
       sodipodi:nodetypes="sccssccsssssccssssssssssssssssssssssssssssssssssssssssssssssssssssssssssssssssssssssssssssssssssssssssssssssssssss" />
    <path
       style="fill:#ffffff;fill-opacity:1;fill-rule:evenodd;stroke:#ffffff;stroke-width:1px;stroke-linecap:butt;stroke-linejoin:round;stroke-opacity:1"
       d="m 12.499929,1033.8622 -2,2 1.500071,0 0,2 1,0 0,-2 1.499929,0 z"
       id="path4150"
       inkscape:connector-curvature="0"
       sodipodi:nodetypes="cccccccc" />
  </g>
</svg>
