<svg width="448" height="233" viewBox="0 0 448 233" fill="none" xmlns="http://www.w3.org/2000/svg">
<rect width="448" height="233" fill="#0A2540"/>
<path d="M154.406 121.866C154.723 121.866 155.041 121.926 155.357 122.044C155.674 122.162 155.978 122.369 156.268 122.658L161.58 128.247C159.254 131.287 156.341 133.578 152.84 135.124C149.339 136.669 145.197 137.443 140.414 137.443C136.028 137.443 132.096 136.697 128.622 135.203C125.148 133.71 122.201 131.651 119.784 129.02C117.366 126.392 115.509 123.273 114.214 119.667C112.92 116.059 112.272 112.142 112.272 107.914C112.272 103.607 113.011 99.6505 114.492 96.0422C115.972 92.4364 118.039 89.3243 120.696 86.7084C123.351 84.0931 126.528 82.0576 130.227 80.605C133.928 79.1518 138.009 78.4233 142.475 78.4233C144.641 78.4233 146.684 78.616 148.599 78.9988C150.514 79.3835 152.305 79.91 153.97 80.5846C155.634 81.2592 157.167 82.0644 158.568 83.0029C159.968 83.9401 161.209 84.9783 162.294 86.1131L157.775 92.1787C157.483 92.5479 157.141 92.8861 156.745 93.1897C156.348 93.4938 155.792 93.6443 155.08 93.6443C154.605 93.6443 154.155 93.5396 153.731 93.3272C153.309 93.1159 152.859 92.8582 152.384 92.5547C151.908 92.2506 151.387 91.9216 150.818 91.5642C150.25 91.2074 149.575 90.8779 148.796 90.5725C148.017 90.2702 147.106 90.0113 146.062 89.8001C145.019 89.5888 143.796 89.4823 142.396 89.4823C139.964 89.4823 137.745 89.9134 135.736 90.7713C133.728 91.6293 132.005 92.8583 130.565 94.4583C129.125 96.0565 128.001 97.9922 127.195 100.265C126.389 102.537 125.987 105.086 125.987 107.914C125.987 110.874 126.389 113.504 127.195 115.801C128.001 118.1 129.098 120.036 130.486 121.608C131.873 123.18 133.491 124.377 135.34 125.195C137.19 126.014 139.171 126.424 141.285 126.424C142.501 126.424 143.611 126.364 144.615 126.246C145.62 126.127 146.551 125.923 147.41 125.631C148.268 125.341 149.088 124.964 149.868 124.502C150.647 124.04 151.432 123.465 152.226 122.777C152.543 122.514 152.886 122.296 153.255 122.123C153.626 121.951 154.009 121.866 154.406 121.866Z" fill="white"/>
<path d="M197.71 136.809C196.546 136.809 195.668 136.651 195.073 136.333C194.479 136.016 193.984 135.357 193.587 134.351L192.715 132.092C191.685 132.964 190.693 133.731 189.743 134.392C188.792 135.052 187.806 135.614 186.79 136.076C185.773 136.539 184.69 136.88 183.539 137.105C182.39 137.33 181.114 137.444 179.715 137.444C177.837 137.444 176.133 137.198 174.602 136.707C173.07 136.216 171.767 135.495 170.697 134.541C169.627 133.587 168.801 132.399 168.221 130.981C167.639 129.564 167.348 127.926 167.348 126.071C167.348 124.612 167.718 123.115 168.457 121.578C169.197 120.04 170.48 118.641 172.302 117.382C174.125 116.123 176.583 115.069 179.674 114.221C182.767 113.371 186.663 112.947 191.368 112.947V111.188C191.368 108.761 190.872 107.007 189.881 105.927C188.891 104.848 187.484 104.307 185.659 104.307C184.207 104.307 183.018 104.467 182.092 104.783C181.168 105.1 180.342 105.457 179.616 105.854C178.888 106.25 178.182 106.607 177.494 106.923C176.807 107.241 175.989 107.398 175.038 107.398C174.192 107.398 173.471 107.194 172.877 106.784C172.283 106.375 171.813 105.867 171.47 105.258L169.251 101.413C171.734 99.2213 174.489 97.5891 177.515 96.5181C180.539 95.4489 183.783 94.9131 187.245 94.9131C189.729 94.9131 191.969 95.3164 193.963 96.1216C195.959 96.9282 197.65 98.0506 199.037 99.4908C200.425 100.932 201.488 102.642 202.227 104.625C202.967 106.607 203.338 108.773 203.338 111.125V136.809H197.71ZM183.6 129.318C185.183 129.318 186.572 129.04 187.76 128.486C188.95 127.929 190.153 127.032 191.368 125.789V120.161C188.91 120.161 186.888 120.323 185.304 120.642C183.718 120.961 182.463 121.362 181.538 121.842C180.613 122.32 179.973 122.868 179.616 123.481C179.259 124.094 179.08 124.76 179.08 125.479C179.08 126.893 179.463 127.885 180.23 128.458C180.996 129.031 182.118 129.318 183.6 129.318Z" fill="white"/>
<path d="M232.218 136.808H221.04L205.106 95.7058H215.333C216.204 95.7058 216.937 95.9102 217.533 96.3203C218.127 96.7304 218.53 97.2389 218.741 97.846L224.448 116.277C224.898 117.784 225.327 119.25 225.737 120.676C226.146 122.104 226.496 123.53 226.787 124.957C227.078 123.53 227.435 122.104 227.857 120.676C228.279 119.25 228.729 117.784 229.206 116.277L235.15 97.846C235.363 97.2389 235.758 96.7304 236.339 96.3203C236.921 95.9102 237.608 95.7058 238.401 95.7058H248.151L232.218 136.808Z" fill="white"/>
<path d="M314.8 94.6909C317.917 94.6909 320.758 95.1797 323.322 96.1565C325.885 97.1346 328.084 98.5352 329.922 100.358C331.756 102.181 333.185 104.395 334.203 106.997C335.219 109.599 335.728 112.526 335.728 115.777C335.728 119.053 335.219 122.005 334.203 124.635C333.185 127.264 331.756 129.498 329.922 131.334C328.084 133.171 325.885 134.583 323.322 135.575C320.758 136.565 317.917 137.062 314.8 137.062C311.654 137.062 308.795 136.565 306.219 135.575C303.642 134.583 301.423 133.171 299.559 131.334C297.696 129.498 296.257 127.264 295.238 124.635C294.221 122.005 293.713 119.053 293.713 115.777C293.713 112.526 294.221 109.599 295.238 106.997C296.257 104.395 297.696 102.181 299.559 100.358C301.423 98.5352 303.642 97.1346 306.219 96.1565C308.795 95.1797 311.654 94.6909 314.8 94.6909ZM314.8 127.944C317.628 127.944 319.708 126.947 321.043 124.953C322.377 122.958 323.044 119.925 323.044 115.855C323.044 111.786 322.377 108.76 321.043 106.779C319.708 104.797 317.628 103.807 314.8 103.807C311.893 103.807 309.766 104.797 308.419 106.779C307.072 108.76 306.397 111.786 306.397 115.855C306.397 119.925 307.072 122.958 308.419 124.953C309.766 126.947 311.893 127.944 314.8 127.944Z" fill="white"/>
<mask id="mask0_2115_118" style="mask-type:alpha" maskUnits="userSpaceOnUse" x="250" y="95" width="41" height="60">
<path d="M271.005 95.6909C273.727 95.6909 276.218 96.1128 278.477 96.9577C280.737 97.8039 282.678 99.0328 284.304 100.645C285.929 102.256 287.197 104.231 288.109 106.57C289.02 108.909 289.476 111.559 289.476 114.518C289.476 115.443 289.436 116.195 289.357 116.777C289.278 117.358 289.132 117.82 288.921 118.164C288.71 118.507 288.427 118.745 288.069 118.878C287.713 119.009 287.256 119.075 286.702 119.075H262.998C263.395 122.511 264.438 125.002 266.131 126.546C267.822 128.093 270.002 128.865 272.67 128.865C274.097 128.865 275.326 128.694 276.357 128.351C277.387 128.007 278.305 127.625 279.112 127.2C279.917 126.778 280.657 126.396 281.331 126.052C282.006 125.709 282.711 125.535 283.451 125.535C284.429 125.535 285.169 125.893 285.672 126.607L289.238 131.005C287.97 132.459 286.602 133.642 285.136 134.553C283.669 135.465 282.164 136.178 280.617 136.694C279.072 137.209 277.526 137.565 275.979 137.765C274.434 137.962 272.961 138.062 271.561 138.062C268.68 138.062 265.978 137.591 263.455 136.654C260.932 135.717 258.725 134.321 256.836 132.473C254.947 130.623 253.454 128.324 252.357 125.575C251.26 122.827 250.713 119.631 250.713 115.983C250.713 113.235 251.181 110.634 252.12 108.176C253.057 105.718 254.405 103.564 256.162 101.715C257.92 99.8654 260.046 98.3991 262.543 97.3145C265.041 96.2311 267.861 95.6909 271.005 95.6909ZM271.244 104.172C268.891 104.172 267.056 104.839 265.734 106.174C264.413 107.508 263.541 109.43 263.119 111.941H278.458C278.458 110.963 278.331 110.012 278.08 109.087C277.829 108.162 277.419 107.336 276.851 106.61C276.283 105.883 275.537 105.295 274.613 104.846C273.688 104.397 272.564 104.172 271.244 104.172Z" fill="#65E07C"/>
<path d="M265.415 144.873C264.339 144.484 263.376 144.076 262.526 143.64C261.676 143.203 260.887 142.816 260.162 142.474C259.438 142.133 258.666 141.965 257.856 141.973C256.783 141.985 255.968 142.358 255.427 143.073C254.143 144.551 252.904 146.048 251.713 147.56C253.116 148.902 259.533 154.576 270.883 154.576C282.233 154.576 288.656 148.878 290.059 147.535C288.864 146.024 287.623 144.529 286.336 143.053C285.793 142.337 284.978 141.966 283.905 141.956C283.095 141.947 282.324 142.118 281.6 142.459C280.876 142.802 280.086 143.19 279.238 143.628C278.389 144.066 277.426 144.476 276.352 144.865C275.27 145.233 273.42 145.707 270.883 145.707C268.346 145.707 266.496 145.24 265.415 144.873Z" fill="#65E07C"/>
</mask>
<g mask="url(#mask0_2115_118)">
<rect x="250.713" y="95.6909" width="39.35" height="59" fill="#D9D9D9"/>
<rect x="250.713" y="95.6909" width="39.35" height="59" fill="url(#paint0_linear_2115_118)"/>
</g>
<defs>
<linearGradient id="paint0_linear_2115_118" x1="290.063" y1="125.191" x2="250.713" y2="125.191" gradientUnits="userSpaceOnUse">
<stop stop-color="#00D4FF"/>
<stop offset="1" stop-color="#60D676"/>
</linearGradient>
</defs>
</svg>
