<svg width="228" height="228" viewBox="0 0 228 228" fill="none" xmlns="http://www.w3.org/2000/svg">
<rect width="228" height="228" fill="#F7F9FC"/>
<mask id="mask0_2115_93" style="mask-type:alpha" maskUnits="userSpaceOnUse" x="76" y="58" width="76" height="112">
<path d="M114.525 58.103C119.694 58.103 124.421 58.9039 128.71 60.508C133.001 62.1144 136.687 64.4476 139.773 67.5076C142.859 70.5664 145.266 74.3168 146.997 78.7562C148.727 83.1968 149.591 88.2278 149.591 93.8468C149.591 95.6026 149.516 97.0291 149.366 98.1346C149.216 99.2388 148.939 100.115 148.539 100.768C148.138 101.419 147.6 101.872 146.922 102.124C146.245 102.373 145.378 102.498 144.325 102.498H99.3239C100.077 109.021 102.058 113.75 105.271 116.681C108.482 119.618 112.62 121.085 117.686 121.085C120.395 121.085 122.728 120.759 124.686 120.107C126.642 119.455 128.384 118.729 129.916 117.923C131.444 117.121 132.849 116.396 134.129 115.743C135.41 115.092 136.749 114.762 138.154 114.762C140.01 114.762 141.415 115.441 142.37 116.797L149.141 125.148C146.734 127.908 144.136 130.153 141.354 131.883C138.568 133.614 135.71 134.969 132.773 135.947C129.84 136.924 126.905 137.602 123.968 137.98C121.035 138.354 118.238 138.544 115.581 138.544C110.11 138.544 104.982 137.651 100.191 135.872C95.4007 134.092 91.2106 131.443 87.6261 127.934C84.0381 124.421 81.2039 120.058 79.1211 114.838C77.0396 109.621 76 103.554 76 96.6281C76 91.4113 76.8891 86.472 78.6719 81.8056C80.4512 77.1392 83.009 73.0502 86.3454 69.5398C89.6829 66.0282 93.7202 63.2446 98.4607 61.1854C103.202 59.1285 108.556 58.103 114.525 58.103ZM114.979 74.2039C110.511 74.2039 107.028 75.4716 104.518 78.0059C102.01 80.5379 100.354 84.187 99.5532 88.9546H128.674C128.674 87.0977 128.433 85.2925 127.957 83.5355C127.481 81.7797 126.703 80.2121 125.624 78.8338C124.546 77.452 123.129 76.3371 121.374 75.4845C119.618 74.6307 117.484 74.2039 114.979 74.2039Z" fill="#65E07C"/>
<path d="M105.213 151.476C103.171 150.736 101.342 149.961 99.7296 149.134C98.1161 148.306 96.6179 147.569 95.242 146.921C93.8672 146.273 92.4007 145.954 90.8625 145.97C88.8256 145.992 87.278 146.7 86.2513 148.059C83.8135 150.865 81.4614 153.706 79.2 156.577C81.8648 159.125 94.046 169.897 115.595 169.897C137.143 169.897 149.337 159.079 152 156.528C149.731 153.66 147.376 150.822 144.932 148.02C143.902 146.66 142.354 145.957 140.317 145.937C138.779 145.921 137.316 146.244 135.941 146.892C134.567 147.544 133.067 148.28 131.457 149.111C129.845 149.943 128.016 150.721 125.977 151.461C123.924 152.158 120.411 153.058 115.595 153.058C110.778 153.058 107.266 152.171 105.213 151.476Z" fill="#65E07C"/>
</mask>
<g mask="url(#mask0_2115_93)">
<rect x="75.9624" y="56.8701" width="75.9399" height="113.91" fill="#D9D9D9"/>
<rect x="75.9624" y="56.8701" width="75.9399" height="113.91" fill="url(#paint0_linear_2115_93)"/>
</g>
<defs>
<linearGradient id="paint0_linear_2115_93" x1="151.902" y1="113.825" x2="75.9624" y2="113.825" gradientUnits="userSpaceOnUse">
<stop stop-color="#00D4FF"/>
<stop offset="1" stop-color="#60D676"/>
</linearGradient>
</defs>
</svg>
