<svg width="448" height="233" viewBox="0 0 448 233" fill="none" xmlns="http://www.w3.org/2000/svg">
<rect width="448" height="233" fill="#F7F9FC"/>
<path d="M154.693 122.175C155.01 122.175 155.328 122.235 155.644 122.353C155.961 122.471 156.265 122.678 156.555 122.968L161.867 128.556C159.541 131.596 156.629 133.887 153.128 135.433C149.626 136.978 145.484 137.752 140.701 137.752C136.315 137.752 132.383 137.006 128.909 135.513C125.435 134.019 122.488 131.96 120.072 129.329C117.653 126.701 115.796 123.582 114.502 119.976C113.208 116.368 112.559 112.451 112.559 108.224C112.559 103.916 113.299 99.9595 114.78 96.3513C116.26 92.7455 118.326 89.6334 120.983 87.0175C123.638 84.4022 126.815 82.3667 130.514 80.9141C134.215 79.4609 138.296 78.7324 142.763 78.7324C144.928 78.7324 146.971 78.9251 148.886 79.3079C150.802 79.6926 152.592 80.2191 154.257 80.8937C155.921 81.5682 157.455 82.3735 158.855 83.312C160.256 84.2492 161.496 85.2874 162.582 86.4222L158.062 92.4878C157.77 92.857 157.429 93.1952 157.032 93.4987C156.636 93.8029 156.079 93.9534 155.368 93.9534C154.892 93.9534 154.442 93.8487 154.018 93.6363C153.596 93.425 153.146 93.1673 152.671 92.8638C152.195 92.5597 151.674 92.2307 151.105 91.8733C150.537 91.5165 149.863 91.187 149.083 90.8816C148.305 90.5793 147.393 90.3204 146.35 90.1091C145.306 89.8979 144.084 89.7914 142.683 89.7914C140.251 89.7914 138.032 90.2225 136.024 91.0804C134.015 91.9384 132.292 93.1673 130.852 94.7674C129.412 96.3655 128.288 98.3013 127.483 100.574C126.676 102.846 126.275 105.395 126.275 108.224C126.275 111.183 126.676 113.813 127.483 116.11C128.288 118.409 129.385 120.345 130.773 121.917C132.16 123.489 133.779 124.686 135.627 125.504C137.477 126.323 139.458 126.733 141.573 126.733C142.788 126.733 143.899 126.673 144.903 126.555C145.907 126.436 146.839 126.232 147.697 125.94C148.555 125.65 149.375 125.273 150.155 124.811C150.934 124.349 151.72 123.774 152.513 123.086C152.83 122.823 153.174 122.605 153.543 122.432C153.914 122.26 154.297 122.175 154.693 122.175Z" fill="#425466"/>
<path d="M197.997 137.118C196.833 137.118 195.955 136.96 195.361 136.642C194.767 136.325 194.271 135.666 193.874 134.66L193.003 132.401C191.972 133.273 190.981 134.04 190.03 134.701C189.079 135.362 188.094 135.923 187.078 136.385C186.06 136.848 184.977 137.19 183.827 137.414C182.677 137.639 181.402 137.753 180.002 137.753C178.125 137.753 176.421 137.507 174.889 137.016C173.357 136.525 172.054 135.804 170.984 134.851C169.914 133.896 169.088 132.708 168.508 131.291C167.926 129.873 167.636 128.235 167.636 126.38C167.636 124.921 168.005 123.424 168.745 121.887C169.485 120.349 170.767 118.95 172.589 117.691C174.412 116.432 176.87 115.378 179.961 114.53C183.054 113.68 186.951 113.256 191.655 113.256V111.497C191.655 109.07 191.159 107.316 190.169 106.237C189.178 105.157 187.771 104.616 185.947 104.616C184.495 104.616 183.305 104.776 182.38 105.092C181.455 105.41 180.629 105.766 179.903 106.163C179.175 106.559 178.47 106.916 177.782 107.232C177.095 107.55 176.276 107.707 175.326 107.707C174.479 107.707 173.758 107.503 173.164 107.093C172.57 106.684 172.1 106.176 171.757 105.567L169.538 101.722C172.021 99.5304 174.776 97.8982 177.803 96.8272C180.827 95.758 184.071 95.2222 187.532 95.2222C190.016 95.2222 192.256 95.6254 194.251 96.4307C196.247 97.2372 197.937 98.3597 199.324 99.7999C200.712 101.241 201.775 102.951 202.515 104.934C203.254 106.916 203.625 109.082 203.625 111.434V137.118H197.997ZM183.887 129.627C185.471 129.627 186.86 129.349 188.048 128.795C189.237 128.239 190.44 127.341 191.655 126.098V120.47C189.197 120.47 187.175 120.632 185.592 120.951C184.005 121.27 182.751 121.671 181.825 122.151C180.901 122.629 180.26 123.177 179.903 123.79C179.546 124.403 179.367 125.069 179.367 125.788C179.367 127.202 179.75 128.194 180.518 128.768C181.283 129.341 182.406 129.627 183.887 129.627Z" fill="#425466"/>
<path d="M232.505 137.118H221.327L205.394 96.0149H215.62C216.492 96.0149 217.224 96.2193 217.82 96.6294C218.414 97.0395 218.818 97.548 219.028 98.1551L224.736 116.586C225.185 118.093 225.614 119.559 226.025 120.985C226.433 122.413 226.783 123.839 227.075 125.266C227.365 123.839 227.722 122.413 228.145 120.985C228.566 119.559 229.016 118.093 229.494 116.586L235.437 98.1551C235.65 97.548 236.045 97.0395 236.627 96.6294C237.209 96.2193 237.895 96.0149 238.688 96.0149H248.439L232.505 137.118Z" fill="#425466"/>
<path d="M314.631 95.3818C317.748 95.3818 320.589 95.8706 323.153 96.8474C325.716 97.8255 327.915 99.2261 329.752 101.049C331.587 102.872 333.016 105.086 334.033 107.688C335.049 110.29 335.559 113.217 335.559 116.468C335.559 119.744 335.049 122.696 334.033 125.326C333.016 127.955 331.587 130.188 329.752 132.025C327.915 133.862 325.716 135.274 323.153 136.266C320.589 137.256 317.748 137.752 314.631 137.752C311.485 137.752 308.626 137.256 306.049 136.266C303.473 135.274 301.254 133.862 299.39 132.025C297.527 130.188 296.088 127.955 295.069 125.326C294.052 122.696 293.543 119.744 293.543 116.468C293.543 113.217 294.052 110.29 295.069 107.688C296.088 105.086 297.527 102.872 299.39 101.049C301.254 99.2261 303.473 97.8255 306.049 96.8474C308.626 95.8706 311.485 95.3818 314.631 95.3818ZM314.631 128.635C317.458 128.635 319.538 127.638 320.873 125.644C322.208 123.649 322.875 120.616 322.875 116.546C322.875 112.477 322.208 109.451 320.873 107.47C319.538 105.488 317.458 104.498 314.631 104.498C311.724 104.498 309.597 105.488 308.25 107.47C306.902 109.451 306.228 112.477 306.228 116.546C306.228 120.616 306.902 123.649 308.25 125.644C309.597 127.638 311.724 128.635 314.631 128.635Z" fill="#425466"/>
<path d="M271.292 95C274.015 95 276.505 95.4218 278.764 96.2668C281.024 97.1129 282.966 98.3419 284.591 99.9537C286.217 101.565 287.485 103.54 288.396 105.879C289.308 108.218 289.763 110.868 289.763 113.827C289.763 114.752 289.723 115.504 289.644 116.086C289.565 116.668 289.419 117.129 289.209 117.473C288.997 117.816 288.714 118.054 288.357 118.187C288 118.318 287.544 118.384 286.989 118.384H263.285C263.682 121.82 264.726 124.311 266.418 125.855C268.109 127.402 270.289 128.174 272.957 128.174C274.384 128.174 275.613 128.003 276.644 127.66C277.675 127.316 278.593 126.934 279.399 126.509C280.204 126.087 280.944 125.705 281.619 125.361C282.293 125.018 282.999 124.844 283.738 124.844C284.716 124.844 285.456 125.202 285.959 125.916L289.526 130.315C288.258 131.768 286.889 132.951 285.424 133.862C283.956 134.774 282.451 135.488 280.904 136.003C279.359 136.518 277.813 136.874 276.267 137.074C274.722 137.271 273.248 137.371 271.849 137.371C268.967 137.371 266.266 136.9 263.742 135.963C261.219 135.026 259.012 133.63 257.124 131.782C255.234 129.932 253.741 127.634 252.644 124.884C251.548 122.136 251 118.94 251 115.292C251 112.545 251.468 109.943 252.407 107.485C253.345 105.027 254.692 102.873 256.449 101.024C258.207 99.1744 260.334 97.7082 262.831 96.6236C265.328 95.5402 268.148 95 271.292 95ZM271.531 103.481C269.178 103.481 267.343 104.149 266.022 105.483C264.7 106.817 263.828 108.739 263.406 111.251H278.745C278.745 110.272 278.618 109.322 278.368 108.396C278.117 107.471 277.707 106.646 277.139 105.92C276.571 105.192 275.824 104.604 274.9 104.155C273.975 103.706 272.851 103.481 271.531 103.481Z" fill="#425466"/>
<path d="M266.388 144.183C265.312 143.793 264.348 143.385 263.499 142.949C262.649 142.513 261.86 142.125 261.135 141.783C260.411 141.442 259.639 141.274 258.829 141.282C257.756 141.294 256.941 141.667 256.4 142.382C255.116 143.86 253.877 145.357 252.686 146.869C254.089 148.211 260.505 153.886 271.856 153.886C283.206 153.886 289.629 148.187 291.032 146.844C289.837 145.333 288.596 143.838 287.309 142.362C286.766 141.646 285.951 141.275 284.878 141.265C284.068 141.256 283.297 141.427 282.573 141.768C281.849 142.111 281.059 142.499 280.211 142.937C279.362 143.375 278.399 143.785 277.325 144.174C276.243 144.542 274.393 145.016 271.856 145.016C269.319 145.016 267.469 144.549 266.388 144.183Z" fill="#425466"/>
</svg>
