<svg width="49" height="74" viewBox="0 0 49 74" fill="none" xmlns="http://www.w3.org/2000/svg">
<mask id="mask0_11084_8063" style="mask-type:alpha" maskUnits="userSpaceOnUse" x="0" y="0" width="49" height="74">
<path d="M25.1806 0C28.5588 0 31.6489 0.523469 34.4522 1.57192C37.257 2.62191 39.666 4.14693 41.683 6.14699C43.6999 8.14628 45.2734 10.5975 46.4048 13.4992C47.5355 16.4017 48.1005 19.69 48.1005 23.3627C48.1005 24.5103 48.0513 25.4427 47.9529 26.1652C47.8553 26.887 47.6739 27.4597 47.4126 27.8863C47.1504 28.3121 46.7992 28.608 46.3557 28.7725C45.9129 28.9355 45.3464 29.017 44.6584 29.017H15.2449C15.7368 33.2807 17.032 36.3715 19.132 38.2878C21.2304 40.2071 23.9354 41.1657 27.2467 41.1657C29.017 41.1657 30.542 40.9527 31.8218 40.5269C33.1001 40.1003 34.2392 39.626 35.24 39.0995C36.2393 38.5753 37.1571 38.101 37.9942 37.6744C38.8312 37.2485 39.7067 37.0333 40.6245 37.0333C41.8382 37.0333 42.756 37.4769 43.3802 38.3631L47.8061 43.8214C46.2327 45.6254 44.5347 47.0928 42.7161 48.2235C40.8951 49.355 39.0272 50.2405 37.1079 50.88C35.1908 51.5188 33.2723 51.9615 31.3529 52.209C29.4359 52.4534 27.6072 52.5772 25.8708 52.5772C22.295 52.5772 18.9429 51.9938 15.8114 50.8308C12.6806 49.6678 9.94188 47.936 7.599 45.6423C5.25381 43.3463 3.40132 40.4946 2.04002 37.0825C0.67949 33.6727 0 29.7072 0 25.1806C0 21.7708 0.58111 18.5424 1.7464 15.4924C2.90938 12.4423 4.58122 9.76969 6.76191 7.47523C8.94337 5.18001 11.5822 3.36059 14.6807 2.01466C17.7799 0.670274 21.2788 0 25.1806 0ZM25.4773 10.5237C22.5571 10.5237 20.2804 11.3524 18.64 13.0088C17.0005 14.6638 15.9182 17.0489 15.3948 20.1651H34.4283C34.4283 18.9513 34.2708 17.7715 33.9602 16.6231C33.6489 15.4755 33.1401 14.4508 32.4352 13.55C31.7303 12.6468 30.8041 11.9181 29.6573 11.3608C28.5096 10.8028 27.1145 10.5237 25.4773 10.5237Z" fill="#65E07C"/>
<path d="M18.244 61.0319C16.9088 60.5484 15.7136 60.0419 14.6597 59.5007C13.6051 58.9596 12.6258 58.4784 11.7265 58.0549C10.8279 57.6314 9.86943 57.4223 8.86402 57.433C7.5327 57.4476 6.52115 57.9104 5.8501 58.7982C4.25667 60.6322 2.71935 62.4893 1.24121 64.3656C2.983 66.0313 10.9448 73.0722 25.0297 73.0722C39.1139 73.0722 47.0842 66.0013 48.8244 64.3341C47.3417 62.4593 45.802 60.6045 44.2048 58.7728C43.5314 57.8842 42.5198 57.4246 41.1885 57.4115C40.1831 57.4008 39.2269 57.6121 38.3283 58.0357C37.4298 58.4615 36.4497 58.9427 35.3974 59.4861C34.3436 60.0296 33.1483 60.5384 31.8155 61.0219C30.4734 61.4777 28.1774 62.0658 25.0297 62.0658C21.8813 62.0658 19.5853 61.4862 18.244 61.0319Z" fill="#65E07C"/>
</mask>
<g mask="url(#mask0_11084_8063)">
<rect width="48.8289" height="73.2124" fill="#D9D9D9"/>
<rect width="48.8289" height="73.2124" fill="url(#paint0_linear_11084_8063)"/>
</g>
<defs>
<linearGradient id="paint0_linear_11084_8063" x1="48.8289" y1="36.6062" x2="0" y2="36.6062" gradientUnits="userSpaceOnUse">
<stop stop-color="#00D4FF"/>
<stop offset="1" stop-color="#60D676"/>
</linearGradient>
</defs>
</svg>
