<?xml version="1.0" encoding="UTF-8" standalone="no"?>
<!-- Created with Inkscape (http://www.inkscape.org/) -->

<svg
   xmlns:dc="http://purl.org/dc/elements/1.1/"
   xmlns:cc="http://creativecommons.org/ns#"
   xmlns:rdf="http://www.w3.org/1999/02/22-rdf-syntax-ns#"
   xmlns:svg="http://www.w3.org/2000/svg"
   xmlns="http://www.w3.org/2000/svg"
   xmlns:sodipodi="http://sodipodi.sourceforge.net/DTD/sodipodi-0.dtd"
   xmlns:inkscape="http://www.inkscape.org/namespaces/inkscape"
   width="25"
   height="25"
   viewBox="0 0 25 25"
   id="svg2"
   version="1.1"
   inkscape:version="0.91 r13725"
   sodipodi:docname="settings.svg"
   inkscape:export-filename="/home/ossman/devel/noVNC/images/drag.png"
   inkscape:export-xdpi="90"
   inkscape:export-ydpi="90">
  <defs
     id="defs4" />
  <sodipodi:namedview
     id="base"
     pagecolor="#959595"
     bordercolor="#666666"
     borderopacity="1.0"
     inkscape:pageopacity="0"
     inkscape:pageshadow="2"
     inkscape:zoom="22.627417"
     inkscape:cx="14.69683"
     inkscape:cy="8.8039511"
     inkscape:document-units="px"
     inkscape:current-layer="layer1"
     showgrid="true"
     units="px"
     inkscape:snap-bbox="true"
     inkscape:bbox-paths="true"
     inkscape:bbox-nodes="true"
     inkscape:snap-bbox-edge-midpoints="true"
     inkscape:object-paths="true"
     showguides="false"
     inkscape:window-width="1920"
     inkscape:window-height="1136"
     inkscape:window-x="1920"
     inkscape:window-y="27"
     inkscape:window-maximized="1">
    <inkscape:grid
       type="xygrid"
       id="grid4136" />
  </sodipodi:namedview>
  <metadata
     id="metadata7">
    <rdf:RDF>
      <cc:Work
         rdf:about="">
        <dc:format>image/svg+xml</dc:format>
        <dc:type
           rdf:resource="http://purl.org/dc/dcmitype/StillImage" />
        <dc:title></dc:title>
      </cc:Work>
    </rdf:RDF>
  </metadata>
  <g
     inkscape:label="Layer 1"
     inkscape:groupmode="layer"
     id="layer1"
     transform="translate(0,-1027.3622)">
    <path
       style="opacity:1;fill:#ffffff;fill-opacity:1;stroke:none;stroke-width:1;stroke-linecap:round;stroke-linejoin:miter;stroke-miterlimit:4;stroke-dasharray:none;stroke-dashoffset:0;stroke-opacity:1"
       d="M 11 3 L 11 5.1601562 A 7.5 7.5 0 0 0 8.3671875 6.2460938 L 6.84375 4.7226562 L 4.7226562 6.84375 L 6.2480469 8.3691406 A 7.5 7.5 0 0 0 5.1523438 11 L 3 11 L 3 14 L 5.1601562 14 A 7.5 7.5 0 0 0 6.2460938 16.632812 L 4.7226562 18.15625 L 6.84375 20.277344 L 8.3691406 18.751953 A 7.5 7.5 0 0 0 11 19.847656 L 11 22 L 14 22 L 14 19.839844 A 7.5 7.5 0 0 0 16.632812 18.753906 L 18.15625 20.277344 L 20.277344 18.15625 L 18.751953 16.630859 A 7.5 7.5 0 0 0 19.847656 14 L 22 14 L 22 11 L 19.839844 11 A 7.5 7.5 0 0 0 18.753906 8.3671875 L 20.277344 6.84375 L 18.15625 4.7226562 L 16.630859 6.2480469 A 7.5 7.5 0 0 0 14 5.1523438 L 14 3 L 11 3 z M 12.5 10 A 2.5 2.5 0 0 1 15 12.5 A 2.5 2.5 0 0 1 12.5 15 A 2.5 2.5 0 0 1 10 12.5 A 2.5 2.5 0 0 1 12.5 10 z "
       transform="translate(0,1027.3622)"
       id="rect4967" />
  </g>
</svg>
