<?xml version="1.0" encoding="utf-8"?>
<!-- Generator: Adobe Illustrator 16.0.0, SVG Export Plug-In . SVG Version: 6.00 Build 0)  -->
<!DOCTYPE svg PUBLIC "-//W3C//DTD SVG 1.1//EN" "http://www.w3.org/Graphics/SVG/1.1/DTD/svg11.dtd">
<svg version="1.1"
	 id="svg2" xmlns:dc="http://purl.org/dc/elements/1.1/" xmlns:cc="http://creativecommons.org/ns#" xmlns:rdf="http://www.w3.org/1999/02/22-rdf-syntax-ns#" xmlns:svg="http://www.w3.org/2000/svg" xmlns:sodipodi="http://sodipodi.sourceforge.net/DTD/sodipodi-0.dtd" xmlns:inkscape="http://www.inkscape.org/namespaces/inkscape" inkscape:export-xdpi="90" inkscape:export-filename="/home/ossman/devel/noVNC/images/drag.png" sodipodi:docname="extrakeys.svg" inkscape:version="0.91 r13725" inkscape:export-ydpi="90"
	 xmlns="http://www.w3.org/2000/svg" xmlns:xlink="http://www.w3.org/1999/xlink" x="0px" y="0px" width="25px" height="25px"
	 viewBox="0 0 25 25" enable-background="new 0 0 25 25" xml:space="preserve">
<sodipodi:namedview  showguides="false" showgrid="false" inkscape:cy="9.9710826" inkscape:cx="15.234555" inkscape:zoom="1" borderopacity="1.0" bordercolor="#666666" pagecolor="#959595" id="base" units="px" inkscape:snap-nodes="false" inkscape:object-nodes="true" inkscape:snap-smooth-nodes="true" inkscape:window-maximized="1" inkscape:window-y="27" inkscape:window-x="1920" inkscape:window-height="1136" inkscape:window-width="1920" inkscape:object-paths="true" inkscape:bbox-nodes="true" inkscape:bbox-paths="true" inkscape:snap-bbox="true" inkscape:pageshadow="2" inkscape:current-layer="layer1" inkscape:pageopacity="0" inkscape:document-units="px" inkscape:snap-intersection-paths="true" inkscape:snap-bbox-edge-midpoints="true">
	<inkscape:grid  id="grid4136" type="xygrid"></inkscape:grid>
</sodipodi:namedview>
<g id="layer1" transform="translate(0,-1027.3622)" inkscape:label="Layer 1" inkscape:groupmode="layer">
	<path id="rect5006" sodipodi:nodetypes="ssssssssssssssssss" inkscape:connector-curvature="0" fill="#FFFFFF" d="M8.618,1031.349
		c-2.199,0-4,1.802-4,4v9c0,2.198,1.801,4,4,4h9c2.199,0,4-1.802,4-4v-9c0-2.198-1.801-4-4-4H8.618z M8.618,1033.349h9
		c1.125,0,2,0.875,2,2v7c0,1.126-0.875,2-2,2h-9c-1.125,0-2-0.874-2-2v-7C6.618,1034.224,7.492,1033.349,8.618,1033.349z"/>
	<g>
		<path fill="#FFFFFF" d="M15.646,1036.765h-3.264v1.46h2.833v1.46h-2.833v2.666h-1.793v-7.046h5.057V1036.765z"/>
	</g>
</g>
</svg>
