<?xml version="1.0" encoding="UTF-8" standalone="no"?>
<!-- Generator: Adobe Illustrator 19.1.0, SVG Export Plug-In . SVG Version: 6.00 Build 0)  -->

<svg
   xmlns:dc="http://purl.org/dc/elements/1.1/"
   xmlns:cc="http://creativecommons.org/ns#"
   xmlns:rdf="http://www.w3.org/1999/02/22-rdf-syntax-ns#"
   xmlns:svg="http://www.w3.org/2000/svg"
   xmlns="http://www.w3.org/2000/svg"
   xmlns:sodipodi="http://sodipodi.sourceforge.net/DTD/sodipodi-0.dtd"
   xmlns:inkscape="http://www.inkscape.org/namespaces/inkscape"
   version="1.1"
   id="svg2"
   inkscape:export-ydpi="90"
   inkscape:export-xdpi="90"
   sodipodi:docname="windows.svg"
   inkscape:export-filename="/home/ossman/devel/noVNC/images/drag.png"
   inkscape:version="0.92.3 (2405546, 2018-03-11)"
   x="0px"
   y="0px"
   viewBox="-293 384 25 23"
   xml:space="preserve"
   width="25"
   height="23"><metadata
   id="metadata21"><rdf:RDF><cc:Work
       rdf:about=""><dc:format>image/svg+xml</dc:format><dc:type
         rdf:resource="http://purl.org/dc/dcmitype/StillImage" /><dc:title></dc:title></cc:Work></rdf:RDF></metadata><defs
   id="defs19" /><sodipodi:namedview
   pagecolor="#ffffff"
   bordercolor="#666666"
   borderopacity="1"
   objecttolerance="10"
   gridtolerance="10"
   guidetolerance="10"
   inkscape:pageopacity="0"
   inkscape:pageshadow="2"
   inkscape:window-width="1920"
   inkscape:window-height="1017"
   id="namedview17"
   showgrid="false"
   inkscape:pagecheckerboard="true"
   inkscape:zoom="9.44"
   inkscape:cx="-0.84745763"
   inkscape:cy="12.5"
   inkscape:window-x="2552"
   inkscape:window-y="122"
   inkscape:window-maximized="1"
   inkscape:current-layer="svg2" />
<style
   type="text/css"
   id="style2">
	.st0{fill:#FFFFFF;}
</style>
<g
   id="g14"
   transform="matrix(1.2624869,0,0,1.3601695,73.614445,-144.84322)">
	<g
   id="g12">
		<path
   class="st0"
   d="m -277.4,396 c -0.7,0 -1.3,0 -2,0 -0.4,0 -0.5,-0.1 -0.5,-0.5 0,-1 0,-2 0,-3 0,-0.3 0.2,-0.5 0.5,-0.5 1.3,-0.1 2.6,-0.3 3.9,-0.4 0.4,0 0.7,0.1 0.7,0.6 0,1.1 0,2.2 0,3.3 0,0.4 -0.2,0.6 -0.6,0.6 -0.7,-0.1 -1.4,-0.1 -2,-0.1 z"
   id="path4"
   inkscape:connector-curvature="0"
   style="fill:#ffffff" />
		<path
   class="st0"
   d="m -274.9,399.3 c 0,0.6 0,1.1 0,1.7 0,0.4 -0.1,0.6 -0.6,0.6 -1.4,-0.1 -2.8,-0.3 -4.1,-0.4 -0.3,0 -0.4,-0.3 -0.4,-0.5 0,-1 0,-2 0,-3 0,-0.4 0.2,-0.5 0.6,-0.5 1.3,0 2.6,0 3.9,0 0.5,0 0.6,0.2 0.6,0.6 0,0.4 0,0.9 0,1.5 z"
   id="path6"
   inkscape:connector-curvature="0"
   style="fill:#ffffff" />
		<path
   class="st0"
   d="m -283.5,396 c -0.6,0 -1.3,0 -1.9,0 -0.4,0 -0.6,-0.1 -0.6,-0.6 0,-0.8 0,-1.5 0,-2.3 0,-0.4 0.2,-0.6 0.6,-0.7 1.3,-0.1 2.7,-0.3 4,-0.4 0.4,0 0.5,0.1 0.5,0.5 0,1 0,1.9 0,2.9 0,0.4 -0.2,0.5 -0.5,0.5 -0.8,0.1 -1.5,0.1 -2.1,0.1 z"
   id="path8"
   inkscape:connector-curvature="0"
   style="fill:#ffffff" />
		<path
   class="st0"
   d="m -283.5,397 c 0.6,0 1.3,0 1.9,0 0.4,0 0.6,0.1 0.6,0.5 0,1 0,1.9 0,2.9 0,0.4 -0.2,0.5 -0.5,0.5 -1.3,-0.1 -2.7,-0.3 -4,-0.4 -0.4,0 -0.6,-0.2 -0.6,-0.7 0,-0.7 0,-1.5 0,-2.2 0,-0.5 0.2,-0.7 0.7,-0.7 0.6,0.1 1.2,0.1 1.9,0.1 z"
   id="path10"
   inkscape:connector-curvature="0"
   style="fill:#ffffff" />
	</g>
</g>
</svg>