<?xml version="1.0" encoding="UTF-8" standalone="no"?>
<!-- Created with Inkscape (http://www.inkscape.org/) -->

<svg
   width="35"
   height="21"
   viewBox="0 0 35 21.000001"
   id="svg2"
   version="1.1"
   xmlns="http://www.w3.org/2000/svg"
   xmlns:svg="http://www.w3.org/2000/svg"
   xmlns:rdf="http://www.w3.org/1999/02/22-rdf-syntax-ns#"
   xmlns:cc="http://creativecommons.org/ns#"
   xmlns:dc="http://purl.org/dc/elements/1.1/">
  <defs
     id="defs4" />
  <metadata
     id="metadata7">
    <rdf:RDF>
      <cc:Work
         rdf:about="">
        <dc:format>image/svg+xml</dc:format>
        <dc:type
           rdf:resource="http://purl.org/dc/dcmitype/StillImage" />
      </cc:Work>
    </rdf:RDF>
  </metadata>
  <g
     id="layer1"
     transform="translate(0,-1004.3621)">
    <g
       id="g4300"
       style="fill:#000000;fill-opacity:1;stroke:none;stroke-width:1.10948"
       transform="matrix(0.90909091,0,0,0.893617,-4.0909091,96.570459)">
      <g
         id="g4302"
         style="fill:#000000;fill-opacity:1;stroke:none;stroke-width:1.10948">
        <path
           d="m 11.986926,1016.3621 c 0.554325,0 1.025987,0.2121 1.414987,0.6362 0.398725,0.4138 0.600909,0.9155 0.598087,1.5052 v 6.8586 h -2 v -6.8914 c 0,-0.072 -0.03404,-0.1086 -0.102113,-0.1086 H 7.1021125 C 7.0340375,1018.3621 7,1018.3983 7,1018.4707 v 6.8914 H 5 v -9 z"
           style="font-style:normal;font-variant:normal;font-weight:bold;font-stretch:normal;font-size:medium;line-height:125%;font-family:Orbitron;-inkscape-font-specification:'Orbitron Bold';text-align:start;letter-spacing:0px;word-spacing:0px;writing-mode:lr-tb;text-anchor:start;fill:#000000;fill-opacity:1;stroke:none;stroke-width:1.10948px;stroke-linecap:butt;stroke-linejoin:miter;stroke-opacity:1"
           id="path4304" />
        <path
           d="m 17.013073,1016.3621 h 4.973854 c 0.554325,0 1.025987,0.2121 1.414986,0.6362 0.398725,0.4138 0.598087,0.9155 0.598087,1.5052 v 4.7172 c 0,0.5897 -0.199362,1.0966 -0.598087,1.5207 -0.388999,0.4138 -0.860661,0.6207 -1.414986,0.6207 h -4.973854 c -0.554325,0 -1.030849,-0.2069 -1.429574,-0.6207 C 15.1945,1024.3173 15,1023.8104 15,1023.2207 v -4.7172 c 0,-0.5897 0.1945,-1.0914 0.583499,-1.5052 0.398725,-0.4241 0.875249,-0.6362 1.429574,-0.6362 z m 4.884815,2 h -4.795776 c -0.06808,0 -0.102112,0.036 -0.102112,0.1086 v 4.7828 c 0,0.072 0.03404,0.1086 0.102112,0.1086 h 4.795776 c 0.06807,0 0.102112,-0.036 0.102112,-0.1086 v -4.7828 c 0,-0.072 -0.03404,-0.1086 -0.102112,-0.1086 z"
           style="font-style:normal;font-variant:normal;font-weight:bold;font-stretch:normal;font-size:medium;line-height:125%;font-family:Orbitron;-inkscape-font-specification:'Orbitron Bold';text-align:start;letter-spacing:0px;word-spacing:0px;writing-mode:lr-tb;text-anchor:start;fill:#000000;fill-opacity:1;stroke:none;stroke-width:1.10948px;stroke-linecap:butt;stroke-linejoin:miter;stroke-opacity:1"
           id="path4306" />
      </g>
      <g
         id="g4308"
         style="fill:#000000;fill-opacity:1;stroke:none;stroke-width:1.10948">
        <path
           d="m 12,1036.9177 4.768114,-8.5556 H 19 l -6,11 h -2 l -6,-11 h 2.2318854 z"
           style="font-style:normal;font-variant:normal;font-weight:bold;font-stretch:normal;font-size:medium;line-height:125%;font-family:Orbitron;-inkscape-font-specification:'Orbitron Bold';text-align:start;letter-spacing:0px;word-spacing:0px;writing-mode:lr-tb;text-anchor:start;fill:#000000;fill-opacity:1;stroke:none;stroke-width:1.10948px;stroke-linecap:butt;stroke-linejoin:miter;stroke-opacity:1"
           id="path4310" />
        <path
           d="m 29,1036.3621 v -8 h 2 v 11 h -2 l -7,-8 v 8 h -2 v -11 h 2 z"
           style="font-style:normal;font-variant:normal;font-weight:bold;font-stretch:normal;font-size:medium;line-height:125%;font-family:Orbitron;-inkscape-font-specification:'Orbitron Bold';text-align:start;letter-spacing:0px;word-spacing:0px;writing-mode:lr-tb;text-anchor:start;fill:#000000;fill-opacity:1;stroke:none;stroke-width:1.10948px;stroke-linecap:butt;stroke-linejoin:miter;stroke-opacity:1"
           id="path4312" />
        <path
           d="m 43,1030.3621 h -8.897887 c -0.06808,0 -0.102113,0.036 -0.102113,0.1069 v 6.7862 c 0,0.071 0.03404,0.1069 0.102113,0.1069 H 43 v 2 h -8.972339 c -0.56405,0 -1.045437,-0.2037 -1.444162,-0.6111 C 32.1945,1038.3334 32,1037.8292 32,1037.2385 v -6.7528 c 0,-0.5907 0.1945,-1.0898 0.583499,-1.4972 0.398725,-0.4176 0.880112,-0.6264 1.444162,-0.6264 H 43 Z"
           style="font-style:normal;font-variant:normal;font-weight:bold;font-stretch:normal;font-size:medium;line-height:125%;font-family:Orbitron;-inkscape-font-specification:'Orbitron Bold';text-align:start;letter-spacing:0px;word-spacing:0px;writing-mode:lr-tb;text-anchor:start;fill:#000000;fill-opacity:1;stroke:none;stroke-width:1.10948px;stroke-linecap:butt;stroke-linejoin:miter;stroke-opacity:1"
           id="path4314" />
      </g>
    </g>
    <g
       id="g4291"
       style="stroke:none;stroke-width:1.10948"
       transform="matrix(0.90909091,0,0,0.893617,-4.5454545,96.123649)">
      <g
         id="g4282"
         style="stroke:none;stroke-width:1.10948">
        <path
           id="path4143"
           style="font-style:normal;font-variant:normal;font-weight:bold;font-stretch:normal;font-size:medium;line-height:125%;font-family:Orbitron;-inkscape-font-specification:'Orbitron Bold';text-align:start;letter-spacing:0px;word-spacing:0px;writing-mode:lr-tb;text-anchor:start;fill:#008000;fill-opacity:1;stroke:none;stroke-width:1.10948px;stroke-linecap:butt;stroke-linejoin:miter;stroke-opacity:1"
           d="m 11.986926,1016.3621 c 0.554325,0 1.025987,0.2121 1.414987,0.6362 0.398725,0.4138 0.600909,0.9155 0.598087,1.5052 v 6.8586 h -2 v -6.8914 c 0,-0.072 -0.03404,-0.1086 -0.102113,-0.1086 H 7.1021125 C 7.0340375,1018.3621 7,1018.3983 7,1018.4707 v 6.8914 H 5 v -9 z" />
        <path
           id="path4145"
           style="font-style:normal;font-variant:normal;font-weight:bold;font-stretch:normal;font-size:medium;line-height:125%;font-family:Orbitron;-inkscape-font-specification:'Orbitron Bold';text-align:start;letter-spacing:0px;word-spacing:0px;writing-mode:lr-tb;text-anchor:start;fill:#008000;fill-opacity:1;stroke:none;stroke-width:1.10948px;stroke-linecap:butt;stroke-linejoin:miter;stroke-opacity:1"
           d="m 17.013073,1016.3621 h 4.973854 c 0.554325,0 1.025987,0.2121 1.414986,0.6362 0.398725,0.4138 0.598087,0.9155 0.598087,1.5052 v 4.7172 c 0,0.5897 -0.199362,1.0966 -0.598087,1.5207 -0.388999,0.4138 -0.860661,0.6207 -1.414986,0.6207 h -4.973854 c -0.554325,0 -1.030849,-0.2069 -1.429574,-0.6207 C 15.1945,1024.3173 15,1023.8104 15,1023.2207 v -4.7172 c 0,-0.5897 0.1945,-1.0914 0.583499,-1.5052 0.398725,-0.4241 0.875249,-0.6362 1.429574,-0.6362 z m 4.884815,2 h -4.795776 c -0.06808,0 -0.102112,0.036 -0.102112,0.1086 v 4.7828 c 0,0.072 0.03404,0.1086 0.102112,0.1086 h 4.795776 c 0.06807,0 0.102112,-0.036 0.102112,-0.1086 v -4.7828 c 0,-0.072 -0.03404,-0.1086 -0.102112,-0.1086 z" />
      </g>
      <g
         id="g4286"
         style="stroke:none;stroke-width:1.10948">
        <path
           id="path4147"
           style="font-style:normal;font-variant:normal;font-weight:bold;font-stretch:normal;font-size:medium;line-height:125%;font-family:Orbitron;-inkscape-font-specification:'Orbitron Bold';text-align:start;letter-spacing:0px;word-spacing:0px;writing-mode:lr-tb;text-anchor:start;fill:#ffff00;fill-opacity:1;stroke:none;stroke-width:1.10948px;stroke-linecap:butt;stroke-linejoin:miter;stroke-opacity:1"
           d="m 12,1036.9177 4.768114,-8.5556 H 19 l -6,11 h -2 l -6,-11 h 2.2318854 z" />
        <path
           id="path4149"
           style="font-style:normal;font-variant:normal;font-weight:bold;font-stretch:normal;font-size:medium;line-height:125%;font-family:Orbitron;-inkscape-font-specification:'Orbitron Bold';text-align:start;letter-spacing:0px;word-spacing:0px;writing-mode:lr-tb;text-anchor:start;fill:#ffff00;fill-opacity:1;stroke:none;stroke-width:1.10948px;stroke-linecap:butt;stroke-linejoin:miter;stroke-opacity:1"
           d="m 29,1036.3621 v -8 h 2 v 11 h -2 l -7,-8 v 8 h -2 v -11 h 2 z" />
        <path
           id="path4151"
           style="font-style:normal;font-variant:normal;font-weight:bold;font-stretch:normal;font-size:medium;line-height:125%;font-family:Orbitron;-inkscape-font-specification:'Orbitron Bold';text-align:start;letter-spacing:0px;word-spacing:0px;writing-mode:lr-tb;text-anchor:start;fill:#ffff00;fill-opacity:1;stroke:none;stroke-width:1.10948px;stroke-linecap:butt;stroke-linejoin:miter;stroke-opacity:1"
           d="m 43,1030.3621 h -8.897887 c -0.06808,0 -0.102113,0.036 -0.102113,0.1069 v 6.7862 c 0,0.071 0.03404,0.1069 0.102113,0.1069 H 43 v 2 h -8.972339 c -0.56405,0 -1.045437,-0.2037 -1.444162,-0.6111 C 32.1945,1038.3334 32,1037.8292 32,1037.2385 v -6.7528 c 0,-0.5907 0.1945,-1.0898 0.583499,-1.4972 0.398725,-0.4176 0.880112,-0.6264 1.444162,-0.6264 H 43 Z" />
      </g>
    </g>
  </g>
</svg>
