<?xml version="1.0" encoding="UTF-8" standalone="no"?>
<!-- Created with Inkscape (http://www.inkscape.org/) -->

<svg
   xmlns:dc="http://purl.org/dc/elements/1.1/"
   xmlns:cc="http://creativecommons.org/ns#"
   xmlns:rdf="http://www.w3.org/1999/02/22-rdf-syntax-ns#"
   xmlns:svg="http://www.w3.org/2000/svg"
   xmlns="http://www.w3.org/2000/svg"
   xmlns:sodipodi="http://sodipodi.sourceforge.net/DTD/sodipodi-0.dtd"
   xmlns:inkscape="http://www.inkscape.org/namespaces/inkscape"
   width="16"
   height="16"
   viewBox="0 0 16 16"
   id="svg2"
   version="1.1"
   inkscape:version="0.91 r13725"
   sodipodi:docname="novnc-icon-sm.svg">
  <defs
     id="defs4" />
  <sodipodi:namedview
     id="base"
     pagecolor="#ffffff"
     bordercolor="#666666"
     borderopacity="1.0"
     inkscape:pageopacity="0.0"
     inkscape:pageshadow="2"
     inkscape:zoom="45.254834"
     inkscape:cx="9.722703"
     inkscape:cy="5.5311896"
     inkscape:document-units="px"
     inkscape:current-layer="layer1"
     showgrid="false"
     units="px"
     inkscape:object-nodes="true"
     inkscape:snap-smooth-nodes="true"
     inkscape:snap-midpoints="true"
     inkscape:window-width="1920"
     inkscape:window-height="1136"
     inkscape:window-x="1920"
     inkscape:window-y="27"
     inkscape:window-maximized="1">
    <inkscape:grid
       type="xygrid"
       id="grid4169" />
  </sodipodi:namedview>
  <metadata
     id="metadata7">
    <rdf:RDF>
      <cc:Work
         rdf:about="">
        <dc:format>image/svg+xml</dc:format>
        <dc:type
           rdf:resource="http://purl.org/dc/dcmitype/StillImage" />
        <dc:title></dc:title>
      </cc:Work>
    </rdf:RDF>
  </metadata>
  <g
     inkscape:label="Layer 1"
     inkscape:groupmode="layer"
     id="layer1"
     transform="translate(0,-1036.3621)">
    <rect
       style="opacity:1;fill:#494949;fill-opacity:1;stroke:none;stroke-width:1;stroke-linecap:round;stroke-linejoin:round;stroke-miterlimit:4;stroke-dasharray:none;stroke-dashoffset:0;stroke-opacity:1"
       id="rect4167"
       width="16"
       height="15.999992"
       x="0"
       y="1036.3622"
       ry="2.6666584" />
    <path
       style="opacity:1;fill:#313131;fill-opacity:1;stroke:none;stroke-width:1;stroke-linecap:round;stroke-linejoin:round;stroke-miterlimit:4;stroke-dasharray:none;stroke-dashoffset:0;stroke-opacity:1"
       d="M 2.6666667,1036.3621 C 1.1893373,1036.3621 0,1037.5515 0,1039.0288 l 0,10.6666 c 0,1.4774 1.1893373,2.6667 2.6666667,2.6667 l 4,0 C 11.837333,1052.3621 16,1046.7128 16,1039.6955 l 0,-0.6667 c 0,-1.4773 -1.189337,-2.6667 -2.666667,-2.6667 l -10.6666663,0 z"
       id="rect4173"
       inkscape:connector-curvature="0" />
    <g
       id="g4381">
      <g
         transform="translate(0.25,0.25)"
         style="fill:#000000;fill-opacity:1"
         id="g4365">
        <g
           style="fill:#000000;fill-opacity:1"
           id="g4367">
          <path
             inkscape:connector-curvature="0"
             id="path4369"
             style="font-style:normal;font-variant:normal;font-weight:bold;font-stretch:normal;font-size:medium;line-height:125%;font-family:Orbitron;-inkscape-font-specification:'Orbitron Bold';text-align:start;letter-spacing:0px;word-spacing:0px;writing-mode:lr-tb;text-anchor:start;fill:#000000;fill-opacity:1;stroke:none;stroke-width:1px;stroke-linecap:butt;stroke-linejoin:miter;stroke-opacity:1"
             d="m 4.3289754,1039.3621 c 0.1846149,0 0.3419956,0.071 0.4716623,0.2121 C 4.933546,1039.7121 5,1039.8793 5,1040.0759 l 0,3.2862 -1,0 0,-2.964 c 0,-0.024 -0.011592,-0.036 -0.034038,-0.036 l -1.931924,0 C 2.011349,1040.3621 2,1040.3741 2,1040.3981 l 0,2.964 -1,0 0,-4 z"
             sodipodi:nodetypes="scsccsssscccs" />
          <path
             inkscape:connector-curvature="0"
             id="path4371"
             style="font-style:normal;font-variant:normal;font-weight:bold;font-stretch:normal;font-size:medium;line-height:125%;font-family:Orbitron;-inkscape-font-specification:'Orbitron Bold';text-align:start;letter-spacing:0px;word-spacing:0px;writing-mode:lr-tb;text-anchor:start;fill:#000000;fill-opacity:1;stroke:none;stroke-width:1px;stroke-linecap:butt;stroke-linejoin:miter;stroke-opacity:1"
             d="m 6.6710244,1039.3621 2.6579513,0 c 0.184775,0 0.3419957,0.071 0.471662,0.2121 C 9.933546,1039.7121 10,1039.8793 10,1040.0759 l 0,2.5724 c 0,0.1966 -0.066454,0.3655 -0.1993623,0.5069 -0.1296663,0.1379 -0.286887,0.2069 -0.471662,0.2069 l -2.6579513,0 c -0.184775,0 -0.3436164,-0.069 -0.4765247,-0.2069 C 6.0648334,1043.0138 6,1042.8449 6,1042.6483 l 0,-2.5724 c 0,-0.1966 0.064833,-0.3638 0.1944997,-0.5017 0.1329083,-0.1414 0.2917497,-0.2121 0.4765247,-0.2121 z m 2.2949386,1 -1.931926,0 C 7.011344,1040.3621 7,1040.3741 7,1040.3981 l 0,1.928 c 0,0.024 0.011347,0.036 0.034037,0.036 l 1.931926,0 c 0.02269,0 0.034037,-0.012 0.034037,-0.036 l 0,-1.928 c 0,-0.024 -0.011347,-0.036 -0.034037,-0.036 z"
             sodipodi:nodetypes="sscsscsscsscssssssssss" />
        </g>
        <g
           style="fill:#000000;fill-opacity:1"
           id="g4373">
          <path
             inkscape:connector-curvature="0"
             id="path4375"
             style="font-style:normal;font-variant:normal;font-weight:bold;font-stretch:normal;font-size:medium;line-height:125%;font-family:Orbitron;-inkscape-font-specification:'Orbitron Bold';text-align:start;letter-spacing:0px;word-spacing:0px;writing-mode:lr-tb;text-anchor:start;fill:#000000;fill-opacity:1;stroke:none;stroke-width:1px;stroke-linecap:butt;stroke-linejoin:miter;stroke-opacity:1"
             d="m 3,1047.1121 1,-2.75 1,0 -1.5,4 -1,0 -1.5,-4 1,0 z"
             sodipodi:nodetypes="cccccccc" />
          <path
             inkscape:connector-curvature="0"
             id="path4377"
             style="font-style:normal;font-variant:normal;font-weight:bold;font-stretch:normal;font-size:medium;line-height:125%;font-family:Orbitron;-inkscape-font-specification:'Orbitron Bold';text-align:start;letter-spacing:0px;word-spacing:0px;writing-mode:lr-tb;text-anchor:start;fill:#000000;fill-opacity:1;stroke:none;stroke-width:1px;stroke-linecap:butt;stroke-linejoin:miter;stroke-opacity:1"
             d="m 9,1046.8621 0,-2.5 1,0 0,4 -1,0 -2,-2.5 0,2.5 -1,0 0,-4 1,0 z"
             sodipodi:nodetypes="ccccccccccc" />
          <path
             inkscape:connector-curvature="0"
             id="path4379"
             style="font-style:normal;font-variant:normal;font-weight:bold;font-stretch:normal;font-size:medium;line-height:125%;font-family:Orbitron;-inkscape-font-specification:'Orbitron Bold';text-align:start;letter-spacing:0px;word-spacing:0px;writing-mode:lr-tb;text-anchor:start;fill:#000000;fill-opacity:1;stroke:none;stroke-width:1px;stroke-linecap:butt;stroke-linejoin:miter;stroke-opacity:1"
             d="m 15,1045.3621 -2.96596,0 c -0.02269,0 -0.03404,0.012 -0.03404,0.036 l 0,1.928 c 0,0.024 0.01135,0.036 0.03404,0.036 l 2.96596,0 0,1 -3.324113,0 c -0.188017,0 -0.348479,-0.068 -0.481388,-0.2037 C 11.064833,1048.0192 11,1047.8511 11,1047.6542 l 0,-2.5842 c 0,-0.1969 0.06483,-0.3633 0.194499,-0.4991 0.132909,-0.1392 0.293371,-0.2088 0.481388,-0.2088 l 3.324113,0 z"
             sodipodi:nodetypes="cssssccscsscscc" />
        </g>
      </g>
      <g
         id="g4356">
        <g
           id="g4347">
          <path
             sodipodi:nodetypes="scsccsssscccs"
             d="m 4.3289754,1039.3621 c 0.1846149,0 0.3419956,0.071 0.4716623,0.2121 C 4.933546,1039.7121 5,1039.8793 5,1040.0759 l 0,3.2862 -1,0 0,-2.964 c 0,-0.024 -0.011592,-0.036 -0.034038,-0.036 l -1.931924,0 c -0.022689,0 -0.034038,0.012 -0.034038,0.036 l 0,2.964 -1,0 0,-4 z"
             style="font-style:normal;font-variant:normal;font-weight:bold;font-stretch:normal;font-size:medium;line-height:125%;font-family:Orbitron;-inkscape-font-specification:'Orbitron Bold';text-align:start;letter-spacing:0px;word-spacing:0px;writing-mode:lr-tb;text-anchor:start;fill:#008000;fill-opacity:1;stroke:none;stroke-width:1px;stroke-linecap:butt;stroke-linejoin:miter;stroke-opacity:1"
             id="path4143"
             inkscape:connector-curvature="0" />
          <path
             sodipodi:nodetypes="sscsscsscsscssssssssss"
             d="m 6.6710244,1039.3621 2.6579513,0 c 0.184775,0 0.3419957,0.071 0.471662,0.2121 C 9.933546,1039.7121 10,1039.8793 10,1040.0759 l 0,2.5724 c 0,0.1966 -0.066454,0.3655 -0.1993623,0.5069 -0.1296663,0.1379 -0.286887,0.2069 -0.471662,0.2069 l -2.6579513,0 c -0.184775,0 -0.3436164,-0.069 -0.4765247,-0.2069 C 6.0648334,1043.0138 6,1042.8449 6,1042.6483 l 0,-2.5724 c 0,-0.1966 0.064833,-0.3638 0.1944997,-0.5017 0.1329083,-0.1414 0.2917497,-0.2121 0.4765247,-0.2121 z m 2.2949386,1 -1.931926,0 C 7.011344,1040.3621 7,1040.3741 7,1040.3981 l 0,1.928 c 0,0.024 0.011347,0.036 0.034037,0.036 l 1.931926,0 c 0.02269,0 0.034037,-0.012 0.034037,-0.036 l 0,-1.928 c 0,-0.024 -0.011347,-0.036 -0.034037,-0.036 z"
             style="font-style:normal;font-variant:normal;font-weight:bold;font-stretch:normal;font-size:medium;line-height:125%;font-family:Orbitron;-inkscape-font-specification:'Orbitron Bold';text-align:start;letter-spacing:0px;word-spacing:0px;writing-mode:lr-tb;text-anchor:start;fill:#008000;fill-opacity:1;stroke:none;stroke-width:1px;stroke-linecap:butt;stroke-linejoin:miter;stroke-opacity:1"
             id="path4145"
             inkscape:connector-curvature="0" />
        </g>
        <g
           id="g4351">
          <path
             sodipodi:nodetypes="cccccccc"
             d="m 3,1047.1121 1,-2.75 1,0 -1.5,4 -1,0 -1.5,-4 1,0 z"
             style="font-style:normal;font-variant:normal;font-weight:bold;font-stretch:normal;font-size:medium;line-height:125%;font-family:Orbitron;-inkscape-font-specification:'Orbitron Bold';text-align:start;letter-spacing:0px;word-spacing:0px;writing-mode:lr-tb;text-anchor:start;fill:#ffff00;fill-opacity:1;stroke:none;stroke-width:1px;stroke-linecap:butt;stroke-linejoin:miter;stroke-opacity:1"
             id="path4147"
             inkscape:connector-curvature="0" />
          <path
             sodipodi:nodetypes="ccccccccccc"
             d="m 9,1046.8621 0,-2.5 1,0 0,4 -1,0 -2,-2.5 0,2.5 -1,0 0,-4 1,0 z"
             style="font-style:normal;font-variant:normal;font-weight:bold;font-stretch:normal;font-size:medium;line-height:125%;font-family:Orbitron;-inkscape-font-specification:'Orbitron Bold';text-align:start;letter-spacing:0px;word-spacing:0px;writing-mode:lr-tb;text-anchor:start;fill:#ffff00;fill-opacity:1;stroke:none;stroke-width:1px;stroke-linecap:butt;stroke-linejoin:miter;stroke-opacity:1"
             id="path4149"
             inkscape:connector-curvature="0" />
          <path
             sodipodi:nodetypes="cssssccscsscscc"
             d="m 15,1045.3621 -2.96596,0 c -0.02269,0 -0.03404,0.012 -0.03404,0.036 l 0,1.928 c 0,0.024 0.01135,0.036 0.03404,0.036 l 2.96596,0 0,1 -3.324113,0 c -0.188017,0 -0.348479,-0.068 -0.481388,-0.2037 C 11.064833,1048.0192 11,1047.8511 11,1047.6542 l 0,-2.5842 c 0,-0.1969 0.06483,-0.3633 0.194499,-0.4991 0.132909,-0.1392 0.293371,-0.2088 0.481388,-0.2088 l 3.324113,0 z"
             style="font-style:normal;font-variant:normal;font-weight:bold;font-stretch:normal;font-size:medium;line-height:125%;font-family:Orbitron;-inkscape-font-specification:'Orbitron Bold';text-align:start;letter-spacing:0px;word-spacing:0px;writing-mode:lr-tb;text-anchor:start;fill:#ffff00;fill-opacity:1;stroke:none;stroke-width:1px;stroke-linecap:butt;stroke-linejoin:miter;stroke-opacity:1"
             id="path4151"
             inkscape:connector-curvature="0" />
        </g>
      </g>
    </g>
  </g>
</svg>
