<svg xmlns="http://www.w3.org/2000/svg" width="256" height="256" viewBox="0 0 256 256" version="1.1"><path d="M 112.500 21.455 C 108.100 22.128, 102.250 23.274, 99.500 24.003 C 96.750 24.731, 91.453 26.559, 87.728 28.064 C 84.003 29.568, 77.658 32.687, 73.627 34.993 C 69.596 37.299, 62.979 41.968, 58.923 45.367 C 54.867 48.767, 48.767 54.867, 45.367 58.923 C 41.968 62.979, 37.288 69.615, 34.969 73.669 C 32.649 77.723, 29.630 83.816, 28.260 87.209 C 26.889 90.602, 24.951 96.330, 23.952 99.939 C 22.953 103.548, 21.574 111.337, 20.888 117.250 C 19.894 125.814, 19.892 130.186, 20.878 138.750 C 21.558 144.662, 22.802 151.975, 23.642 155 C 24.481 158.025, 26.060 162.975, 27.149 166 C 28.238 169.025, 30.937 174.875, 33.147 179 C 35.357 183.125, 39.016 188.975, 41.279 192 C 43.542 195.025, 47.876 200.115, 50.908 203.312 C 53.941 206.509, 59.365 211.305, 62.961 213.970 C 66.558 216.635, 72.875 220.628, 77 222.843 C 81.125 225.058, 86.975 227.762, 90 228.851 C 93.025 229.940, 97.975 231.519, 101 232.358 C 104.025 233.198, 111.338 234.442, 117.250 235.122 C 125.793 236.106, 130.207 236.106, 138.750 235.122 C 144.663 234.442, 151.975 233.198, 155 232.358 C 158.025 231.519, 162.975 229.940, 166 228.851 C 169.025 227.762, 174.875 225.058, 179 222.843 C 183.125 220.628, 189.490 216.600, 193.144 213.892 C 196.798 211.183, 202.663 205.920, 206.176 202.196 C 209.690 198.472, 214.634 192.291, 217.164 188.462 C 219.694 184.633, 222.944 179.147, 224.388 176.271 C 225.831 173.395, 227.872 168.670, 228.922 165.771 C 229.972 162.872, 231.519 158.025, 232.358 155 C 233.198 151.975, 234.442 144.662, 235.122 138.750 C 236.106 130.207, 236.106 125.793, 235.122 117.250 C 234.442 111.338, 233.198 104.025, 232.358 101 C 231.519 97.975, 229.940 93.025, 228.851 90 C 227.762 86.975, 225.058 81.125, 222.843 77 C 220.628 72.875, 216.635 66.558, 213.970 62.961 C 211.305 59.365, 206.509 53.941, 203.312 50.908 C 200.115 47.876, 195.025 43.542, 192 41.279 C 188.975 39.016, 183.125 35.357, 179 33.147 C 174.875 30.937, 169.025 28.233, 166 27.138 C 162.975 26.043, 157.800 24.445, 154.500 23.588 C 151.200 22.732, 144.980 21.574, 140.678 21.015 C 136.375 20.457, 130.075 20.052, 126.678 20.115 C 123.280 20.179, 116.900 20.782, 112.500 21.455 M 112 59.433 C 112 71.451, 111.925 71.889, 109.750 72.566 C 108.513 72.951, 105.265 74.338, 102.534 75.647 L 97.568 78.028 88.782 69.283 L 79.997 60.539 69.499 71.001 L 59.001 81.463 67.898 90.482 L 76.796 99.500 74.148 106.235 L 71.500 112.969 59.250 112.985 L 47 113 47 127 L 47 141 59.250 141.009 L 71.500 141.017 74.089 147.759 L 76.678 154.500 67.840 163.518 L 59.001 172.537 69.499 182.999 L 79.997 193.461 88.782 184.717 L 97.568 175.972 102.534 178.353 C 105.265 179.662, 108.513 181.049, 109.750 181.434 C 111.925 182.111, 112 182.549, 112 194.567 L 112 207 127 207 L 142 207 142 194.567 C 142 182.549, 142.075 182.111, 144.250 181.434 C 145.488 181.049, 148.735 179.662, 151.466 178.353 L 156.432 175.972 165.218 184.717 L 174.003 193.461 184.501 182.999 L 194.999 172.537 186.077 163.518 L 177.156 154.500 179.754 148.250 L 182.353 142 194.677 142 L 207 142 207 127 L 207 112 194.677 112 L 182.353 112 179.754 105.750 L 177.156 99.500 186.077 90.482 L 194.999 81.463 184.501 71.001 L 174.003 60.539 165.218 69.283 L 156.432 78.028 151.466 75.647 C 148.735 74.338, 145.488 72.951, 144.250 72.566 C 142.075 71.889, 142 71.451, 142 59.433 L 142 47 127 47 L 112 47 112 59.433 M 101 112 L 101 120 109 120 L 117 120 117 124 L 117 128 113 128 L 109 128 109 142 L 109 156 113 156 L 117 156 117 152 L 117 148 127 148 L 137 148 137 152 L 137 156 141 156 L 145 156 145 142 L 145 128 141 128 L 137 128 137 124 L 137 120 145 120 L 153 120 153 112 L 153 104 145 104 L 137 104 137 112 L 137 120 127 120 L 117 120 117 112 L 117 104 109 104 L 101 104 101 112" stroke="none" fill="#217c4b" fill-rule="evenodd"/><path d="M 107 3.462 C 103.425 4.142, 97.800 5.433, 94.500 6.331 C 91.200 7.228, 86.025 8.910, 83 10.068 C 79.975 11.226, 73.675 14.152, 69 16.571 C 64.325 18.990, 56.652 23.864, 51.949 27.402 C 47.246 30.940, 40.407 37.006, 36.750 40.883 C 33.093 44.759, 27.787 51.209, 24.958 55.215 C 22.130 59.222, 18.047 65.998, 15.885 70.272 C 13.724 74.547, 11.004 80.586, 9.842 83.691 C 8.680 86.797, 7.100 91.625, 6.331 94.419 C 5.561 97.214, 4.273 103.100, 3.467 107.500 C 2.662 111.900, 2.004 121.125, 2.005 128 C 2.006 134.875, 2.702 144.479, 3.553 149.342 C 4.404 154.205, 6.480 162.305, 8.167 167.342 C 9.854 172.379, 13.160 180.325, 15.514 185 C 17.869 189.675, 22.601 197.435, 26.031 202.245 C 29.461 207.055, 35.742 214.310, 39.989 218.368 C 44.237 222.425, 51.039 228.094, 55.106 230.965 C 59.173 233.835, 65.998 237.953, 70.272 240.115 C 74.547 242.276, 80.586 244.996, 83.691 246.158 C 86.797 247.320, 91.625 248.900, 94.419 249.669 C 97.214 250.439, 103.100 251.727, 107.500 252.533 C 111.900 253.338, 121.125 253.996, 128 253.995 C 134.875 253.994, 144.479 253.298, 149.342 252.447 C 154.205 251.596, 162.305 249.520, 167.342 247.833 C 172.379 246.146, 180.325 242.840, 185 240.486 C 189.675 238.131, 197.325 233.474, 202 230.137 C 206.675 226.799, 213.723 220.790, 217.663 216.784 C 221.602 212.778, 227.390 205.900, 230.523 201.500 C 233.657 197.100, 238.143 189.675, 240.493 185 C 242.843 180.325, 246.146 172.379, 247.833 167.342 C 249.520 162.305, 251.596 154.205, 252.447 149.342 C 253.298 144.479, 253.994 134.875, 253.995 128 C 253.996 121.125, 253.338 111.900, 252.533 107.500 C 251.727 103.100, 250.439 97.214, 249.669 94.419 C 248.900 91.625, 247.320 86.797, 246.158 83.691 C 244.996 80.586, 242.276 74.547, 240.115 70.272 C 237.953 65.998, 233.835 59.173, 230.965 55.106 C 228.094 51.039, 222.425 44.237, 218.368 39.989 C 214.310 35.742, 207.055 29.461, 202.245 26.031 C 197.435 22.601, 189.675 17.869, 185 15.514 C 180.325 13.160, 172.379 9.854, 167.342 8.167 C 162.305 6.480, 154.205 4.404, 149.342 3.553 C 143.970 2.613, 135.202 2.049, 127 2.115 C 119.575 2.175, 110.575 2.781, 107 3.462 M 112.500 21.455 C 108.100 22.128, 102.250 23.274, 99.500 24.003 C 96.750 24.731, 91.453 26.559, 87.728 28.064 C 84.003 29.568, 77.658 32.687, 73.627 34.993 C 69.596 37.299, 62.979 41.968, 58.923 45.367 C 54.867 48.767, 48.767 54.867, 45.367 58.923 C 41.968 62.979, 37.288 69.615, 34.969 73.669 C 32.649 77.723, 29.630 83.816, 28.260 87.209 C 26.889 90.602, 24.951 96.330, 23.952 99.939 C 22.953 103.548, 21.574 111.337, 20.888 117.250 C 19.894 125.814, 19.892 130.186, 20.878 138.750 C 21.558 144.662, 22.802 151.975, 23.642 155 C 24.481 158.025, 26.060 162.975, 27.149 166 C 28.238 169.025, 30.937 174.875, 33.147 179 C 35.357 183.125, 39.016 188.975, 41.279 192 C 43.542 195.025, 47.876 200.115, 50.908 203.312 C 53.941 206.509, 59.365 211.305, 62.961 213.970 C 66.558 216.635, 72.875 220.628, 77 222.843 C 81.125 225.058, 86.975 227.762, 90 228.851 C 93.025 229.940, 97.975 231.519, 101 232.358 C 104.025 233.198, 111.338 234.442, 117.250 235.122 C 125.793 236.106, 130.207 236.106, 138.750 235.122 C 144.663 234.442, 151.975 233.198, 155 232.358 C 158.025 231.519, 162.975 229.940, 166 228.851 C 169.025 227.762, 174.875 225.058, 179 222.843 C 183.125 220.628, 189.490 216.600, 193.144 213.892 C 196.798 211.183, 202.663 205.920, 206.176 202.196 C 209.690 198.472, 214.634 192.291, 217.164 188.462 C 219.694 184.633, 222.944 179.147, 224.388 176.271 C 225.831 173.395, 227.872 168.670, 228.922 165.771 C 229.972 162.872, 231.519 158.025, 232.358 155 C 233.198 151.975, 234.442 144.662, 235.122 138.750 C 236.106 130.207, 236.106 125.793, 235.122 117.250 C 234.442 111.338, 233.198 104.025, 232.358 101 C 231.519 97.975, 229.940 93.025, 228.851 90 C 227.762 86.975, 225.058 81.125, 222.843 77 C 220.628 72.875, 216.635 66.558, 213.970 62.961 C 211.305 59.365, 206.509 53.941, 203.312 50.908 C 200.115 47.876, 195.025 43.542, 192 41.279 C 188.975 39.016, 183.125 35.357, 179 33.147 C 174.875 30.937, 169.025 28.233, 166 27.138 C 162.975 26.043, 157.800 24.445, 154.500 23.588 C 151.200 22.732, 144.980 21.574, 140.678 21.015 C 136.375 20.457, 130.075 20.052, 126.678 20.115 C 123.280 20.179, 116.900 20.782, 112.500 21.455 M 112 59.433 C 112 71.451, 111.925 71.889, 109.750 72.566 C 108.513 72.951, 105.265 74.338, 102.534 75.647 L 97.568 78.028 88.782 69.283 L 79.997 60.539 69.499 71.001 L 59.001 81.463 67.898 90.482 L 76.796 99.500 74.148 106.235 L 71.500 112.969 59.250 112.985 L 47 113 47 127 L 47 141 59.250 141.009 L 71.500 141.017 74.089 147.759 L 76.678 154.500 67.840 163.518 L 59.001 172.537 69.499 182.999 L 79.997 193.461 88.782 184.717 L 97.568 175.972 102.534 178.353 C 105.265 179.662, 108.513 181.049, 109.750 181.434 C 111.925 182.111, 112 182.549, 112 194.567 L 112 207 127 207 L 142 207 142 194.567 C 142 182.549, 142.075 182.111, 144.250 181.434 C 145.488 181.049, 148.735 179.662, 151.466 178.353 L 156.432 175.972 165.218 184.717 L 174.003 193.461 184.501 182.999 L 194.999 172.537 186.077 163.518 L 177.156 154.500 179.754 148.250 L 182.353 142 194.677 142 L 207 142 207 127 L 207 112 194.677 112 L 182.353 112 179.754 105.750 L 177.156 99.500 186.077 90.482 L 194.999 81.463 184.501 71.001 L 174.003 60.539 165.218 69.283 L 156.432 78.028 151.466 75.647 C 148.735 74.338, 145.488 72.951, 144.250 72.566 C 142.075 71.889, 142 71.451, 142 59.433 L 142 47 127 47 L 112 47 112 59.433 M 101 112 L 101 120 109 120 L 117 120 117 124 L 117 128 113 128 L 109 128 109 142 L 109 156 113 156 L 117 156 117 152 L 117 148 127 148 L 137 148 137 152 L 137 156 141 156 L 145 156 145 142 L 145 128 141 128 L 137 128 137 124 L 137 120 145 120 L 153 120 153 112 L 153 104 145 104 L 137 104 137 112 L 137 120 127 120 L 117 120 117 112 L 117 104 109 104 L 101 104 101 112" stroke="none" fill="#3ce28c" fill-rule="evenodd"/></svg>